<?xml version="1.0" encoding="UTF-8"?>
<svg id="Layer_2" data-name="Layer 2" xmlns="http://www.w3.org/2000/svg" viewBox="0 0 464.17 143.54">
  <defs>
    <style>
      .cls-1 {
        fill: #262d34;
      }

      .cls-2, .cls-3 {
        fill: #242d35;
      }

      .cls-4 {
        fill: #f0f4f7;
        stroke: #242d35;
      }

      .cls-4, .cls-3 {
        stroke-linecap: round;
        stroke-linejoin: round;
      }

      .cls-5 {
        fill: #fd6c1a;
      }

      .cls-3 {
        stroke: #f0f4f7;
      }

      .cls-6 {
        fill: #e4e9ed;
      }
    </style>
  </defs>
  <g id="Layer_1-2" data-name="Layer 1">
    <g>
      <g>
        <rect class="cls-5" x="71.48" y="115.35" width="322.83" height="27.69"/>
        <path class="cls-1" d="M394.31,143.54H71.48c-.28,0-.5-.22-.5-.5v-27.69c0-.28.22-.5.5-.5h322.83c.28,0,.5.22.5.5v27.69c0,.28-.22.5-.5.5ZM71.98,142.54h321.83v-26.69H71.98v26.69Z"/>
      </g>
      <g>
        <path class="cls-2" d="M85.06,135.97v-9.86l-2.37,1.15v-1.29l2.79-1.5h1.02v11.49h-1.44Z"/>
        <path class="cls-2" d="M92.75,136.11c-.35,0-.73-.01-1.14-.04-.42-.03-.82-.06-1.22-.11-.4-.04-.74-.09-1.04-.13v-1.15c.38.03.77.07,1.19.1.41.03.8.06,1.17.08s.69.03.95.03c.66,0,1.21-.04,1.67-.12.46-.08.8-.27,1.03-.55.23-.28.34-.73.34-1.34,0-.51-.07-.92-.22-1.23-.15-.31-.38-.52-.7-.65-.32-.13-.75-.19-1.29-.19h-2.16v-1.25h2.16c.38,0,.72-.05,1.04-.15.31-.1.56-.29.75-.57s.28-.69.28-1.24c0-.6-.1-1.04-.3-1.32-.2-.28-.53-.46-.98-.54s-1.05-.12-1.8-.12c-.3,0-.63.01-1,.03s-.73.05-1.09.08-.69.06-.98.11v-1.17c.3-.06.65-.1,1.04-.14.39-.04.79-.07,1.2-.1.41-.03.79-.04,1.12-.04.81,0,1.49.06,2.04.18.55.12.98.31,1.3.55.32.25.55.56.69.94.14.38.21.83.21,1.35,0,.83-.17,1.46-.51,1.87s-.82.69-1.44.83v.07c.42.08.79.21,1.1.4.31.19.55.47.73.85.17.38.26.88.26,1.5,0,.49-.06.93-.18,1.33-.12.4-.33.73-.64,1.01-.31.28-.75.49-1.33.64-.57.15-1.32.23-2.25.23Z"/>
        <path class="cls-2" d="M103.97,135.97v-11.49h3.64c.95,0,1.72.04,2.32.13.6.09,1.08.25,1.43.48.35.23.61.57.78,1,.17.43.27.99.32,1.65.04.67.07,1.49.07,2.47s-.02,1.8-.07,2.47c-.04.67-.15,1.22-.32,1.65-.17.43-.43.77-.78,1-.35.23-.83.4-1.43.48-.6.09-1.38.13-2.32.13h-3.64ZM105.41,134.74h1.97c.7,0,1.28-.02,1.74-.05.46-.03.82-.12,1.09-.26.27-.14.46-.37.58-.69s.2-.76.24-1.33c.04-.57.06-1.3.06-2.19s-.02-1.62-.06-2.18-.12-1-.25-1.33-.33-.55-.59-.69c-.27-.14-.63-.23-1.08-.26s-1.03-.05-1.73-.05h-1.97v9.02Z"/>
        <path class="cls-2" d="M115.48,135.97v-11.49h7.47v1.24h-6.03v3.83h5.25v1.25h-5.25v3.94h6.03v1.24h-7.47Z"/>
        <path class="cls-2" d="M129.78,136.11c-.8,0-1.48-.05-2.02-.14-.55-.09-.99-.26-1.34-.5-.35-.24-.61-.58-.79-1.02-.18-.44-.31-1-.38-1.7-.07-.69-.1-1.53-.1-2.52s.03-1.83.1-2.51c.07-.69.19-1.25.38-1.69.18-.44.45-.78.79-1.03s.79-.42,1.34-.51c.55-.09,1.22-.14,2.02-.14.31,0,.63.01.96.03.33.02.64.05.94.08.3.03.56.08.79.13v1.15c-.26-.03-.52-.06-.79-.09-.27-.03-.54-.05-.81-.06-.27-.01-.51-.02-.72-.02-.65,0-1.19.03-1.62.08-.43.06-.78.17-1.04.33-.26.16-.45.41-.58.75-.13.34-.21.79-.26,1.35s-.07,1.27-.07,2.13.02,1.57.07,2.13c.04.56.13,1.01.26,1.35.13.34.32.59.58.75.26.16.6.27,1.04.33.43.06.97.08,1.62.08.38,0,.79-.02,1.24-.05.45-.03.83-.07,1.15-.12v1.19c-.23.04-.51.08-.83.11-.32.03-.64.05-.98.08-.33.02-.65.03-.95.03Z"/>
        <path class="cls-2" d="M135.16,135.97v-11.49h7.47v1.24h-6.03v3.83h5.25v1.25h-5.25v3.94h6.03v1.24h-7.47Z"/>
        <path class="cls-2" d="M145.23,135.97v-11.49h1.94l3.93,9.15h.08l3.91-9.15h1.94v11.49h-1.4v-9.19h-.07l-3.93,9.19h-1.05l-3.93-9.19h-.07v9.19h-1.35Z"/>
        <path class="cls-2" d="M160.37,135.97v-11.49h5.35c.76,0,1.36.12,1.8.35.45.23.76.57.95.99.19.43.28.94.28,1.54,0,.49-.07.92-.2,1.29s-.34.68-.63.91c-.28.23-.66.4-1.13.5v.07c.57.1,1,.28,1.3.54s.51.59.62.98c.11.39.17.82.17,1.29,0,.4-.05.79-.14,1.15s-.26.69-.48.97c-.23.28-.55.5-.98.66-.42.16-.97.24-1.64.24h-5.28ZM161.81,129.53h3.44c.47,0,.85-.07,1.16-.2.31-.13.53-.34.69-.63s.23-.64.23-1.06c0-.47-.06-.84-.18-1.12-.12-.28-.33-.48-.63-.61-.3-.13-.72-.19-1.27-.19h-3.44v3.81ZM161.81,134.74h3.51c.55,0,.97-.06,1.29-.19.31-.13.53-.34.66-.63.13-.29.19-.68.19-1.14s-.07-.87-.21-1.16-.36-.51-.68-.63c-.31-.13-.73-.19-1.25-.19h-3.51v3.96Z"/>
        <path class="cls-2" d="M171.76,135.97v-11.49h7.47v1.24h-6.03v3.83h5.25v1.25h-5.25v3.94h6.03v1.24h-7.47Z"/>
        <path class="cls-2" d="M181.84,135.97v-11.49h5.28c.72,0,1.3.09,1.73.26.43.17.75.42.95.73.21.32.34.69.41,1.11.07.42.1.88.1,1.35,0,.41-.04.84-.11,1.28-.07.44-.23.84-.48,1.19-.25.36-.64.62-1.18.79l1.94,4.78h-1.54l-1.9-4.83.4.2c-.08.02-.17.04-.28.05s-.26.02-.45.02h-3.42v4.56h-1.44ZM183.27,130.16h3.22c.56,0,.99-.04,1.31-.13s.55-.23.7-.42c.15-.19.25-.42.29-.69.04-.27.07-.6.07-.98s-.02-.7-.06-.98c-.04-.27-.13-.5-.27-.68-.14-.18-.36-.32-.67-.42s-.73-.14-1.26-.14h-3.34v4.44Z"/>
        <path class="cls-2" d="M196.64,135.97v-1.34c0-.63.01-1.17.04-1.59s.1-.78.23-1.06.31-.52.58-.72c.26-.2.63-.4,1.11-.6l3.02-1.29c.4-.18.7-.34.9-.5s.34-.35.41-.57.11-.52.11-.89c0-.53-.08-.93-.24-1.19-.16-.26-.45-.43-.85-.52-.41-.08-.98-.12-1.73-.12-.27,0-.59.01-.98.03s-.78.05-1.19.08c-.41.03-.8.06-1.17.11v-1.17c.32-.06.7-.1,1.13-.14s.87-.07,1.34-.1c.46-.03.9-.04,1.31-.04.53,0,1.03.03,1.49.08.46.06.86.18,1.22.37.36.19.63.48.83.88s.29.93.29,1.59-.07,1.2-.21,1.6-.36.71-.67.95c-.31.24-.71.47-1.21.68l-3.44,1.45c-.29.12-.5.26-.63.42s-.21.36-.24.61c-.03.25-.05.57-.05.96v.79h6.45v1.25h-7.83Z"/>
        <path class="cls-2" d="M211.25,136.11c-.83,0-1.52-.05-2.06-.14-.54-.09-.96-.26-1.27-.51-.31-.25-.53-.59-.67-1.03-.14-.44-.23-1-.27-1.69-.04-.69-.06-1.52-.06-2.51s.02-1.83.06-2.51c.04-.69.13-1.25.27-1.69.14-.44.36-.78.67-1.03.31-.25.73-.42,1.27-.51s1.23-.14,2.06-.14,1.52.05,2.06.14c.54.09.96.26,1.27.51.31.25.53.59.68,1.03.14.44.23,1,.27,1.69.03.68.05,1.52.05,2.51s-.02,1.83-.05,2.51c-.03.68-.12,1.25-.27,1.69-.15.44-.37.78-.68,1.03-.31.25-.73.42-1.27.51-.54.09-1.23.14-2.06.14ZM211.25,134.87c.57,0,1.03-.02,1.39-.06s.64-.13.84-.28.36-.38.45-.72c.09-.33.16-.79.18-1.37s.04-1.32.04-2.22-.01-1.64-.04-2.22-.09-1.04-.18-1.37c-.09-.33-.25-.57-.45-.72s-.49-.24-.84-.28-.82-.06-1.39-.06-1,.02-1.37.06-.65.13-.86.28-.36.38-.45.72c-.09.33-.15.79-.18,1.37-.02.58-.03,1.32-.03,2.22s.01,1.64.03,2.22c.02.58.08,1.04.18,1.37s.25.57.45.72.49.24.85.28c.36.04.82.06,1.38.06Z"/>
        <path class="cls-2" d="M218.04,135.97v-1.34c0-.63.01-1.17.04-1.59s.1-.78.23-1.06.31-.52.58-.72c.26-.2.63-.4,1.11-.6l3.02-1.29c.4-.18.7-.34.9-.5s.34-.35.41-.57.11-.52.11-.89c0-.53-.08-.93-.24-1.19-.16-.26-.45-.43-.85-.52-.41-.08-.98-.12-1.73-.12-.27,0-.59.01-.98.03s-.78.05-1.19.08c-.41.03-.8.06-1.17.11v-1.17c.32-.06.7-.1,1.13-.14s.87-.07,1.34-.1c.46-.03.9-.04,1.31-.04.53,0,1.03.03,1.49.08.46.06.86.18,1.22.37.36.19.63.48.83.88s.29.93.29,1.59-.07,1.2-.21,1.6-.36.71-.67.95c-.31.24-.71.47-1.21.68l-3.44,1.45c-.29.12-.5.26-.63.42s-.21.36-.24.61c-.03.25-.05.57-.05.96v.79h6.45v1.25h-7.83Z"/>
        <path class="cls-2" d="M231.85,136.11c-.35,0-.72-.01-1.14-.04-.41-.03-.82-.06-1.22-.1-.4-.04-.76-.09-1.07-.14v-1.15c.39.03.79.07,1.2.1.41.03.8.06,1.17.08.37.02.69.03.95.03.62,0,1.13-.04,1.53-.11.4-.07.7-.2.92-.37.22-.17.37-.41.46-.7.09-.29.13-.67.13-1.11,0-.49-.05-.88-.14-1.18-.09-.29-.26-.51-.5-.66-.24-.14-.57-.24-.99-.29-.42-.05-.97-.08-1.64-.08-.22,0-.5,0-.83.03s-.68.04-1.04.08-.73.07-1.09.12v-6.11h6.83v1.25h-5.51v3.57c.22-.03.48-.06.78-.09.29-.03.6-.05.9-.06.31-.01.59-.02.86-.02.82,0,1.49.07,1.99.2.5.13.88.34,1.14.63s.44.63.54,1.04c.1.41.15.88.15,1.41,0,.68-.06,1.26-.19,1.73-.13.47-.35.85-.67,1.14s-.76.49-1.33.63c-.57.13-1.3.2-2.21.2Z"/>
      </g>
      <g>
        <path class="cls-6" d="M252.93,135.97v-11.49h5.28c.72,0,1.3.09,1.73.26.43.17.75.42.95.73.21.32.34.69.41,1.11.07.42.1.88.1,1.35,0,.41-.04.84-.11,1.28-.07.44-.23.84-.48,1.19-.25.36-.64.62-1.18.79l1.94,4.78h-1.54l-1.9-4.83.4.2c-.08.02-.17.04-.28.05s-.26.02-.45.02h-3.42v4.56h-1.44ZM254.36,130.16h3.22c.56,0,.99-.04,1.31-.13s.55-.23.7-.42c.15-.19.25-.42.29-.69.04-.27.07-.6.07-.98s-.02-.7-.06-.98c-.04-.27-.13-.5-.27-.68-.14-.18-.36-.32-.67-.42s-.73-.14-1.26-.14h-3.34v4.44Z"/>
        <path class="cls-6" d="M268.61,136.11c-.89,0-1.63-.05-2.21-.14-.58-.09-1.05-.26-1.39-.51s-.59-.59-.74-1.03c-.16-.44-.26-1-.3-1.69-.04-.69-.07-1.52-.07-2.51s.02-1.83.07-2.51c.04-.69.14-1.25.3-1.69.16-.44.4-.78.74-1.03s.8-.42,1.39-.51c.58-.09,1.32-.14,2.21-.14s1.63.05,2.21.14c.58.09,1.05.26,1.39.51s.59.59.74,1.03c.16.44.26,1,.3,1.69.04.68.07,1.52.07,2.51s-.02,1.83-.07,2.51c-.04.68-.15,1.25-.3,1.69-.16.44-.4.78-.74,1.03s-.8.42-1.39.51c-.58.09-1.32.14-2.21.14ZM268.61,134.87c.61,0,1.12-.02,1.52-.06s.72-.13.95-.28.41-.38.53-.71c.12-.33.2-.78.23-1.36.03-.58.04-1.33.04-2.24s-.01-1.66-.04-2.24c-.03-.58-.1-1.03-.23-1.36-.12-.33-.3-.57-.53-.71s-.55-.24-.95-.28-.91-.06-1.52-.06-1.12.02-1.51.06c-.4.04-.71.13-.95.28-.24.14-.42.38-.53.71-.12.33-.19.78-.23,1.36-.03.58-.05,1.33-.05,2.24s.02,1.66.05,2.24c.03.58.11,1.03.23,1.36.12.33.29.57.53.71.24.14.56.24.95.28.4.04.9.06,1.51.06Z"/>
        <path class="cls-6" d="M280.54,136.11c-.79,0-1.45-.05-1.98-.14-.53-.09-.96-.25-1.28-.48-.32-.22-.57-.53-.73-.93-.17-.39-.28-.89-.33-1.48-.06-.59-.08-1.3-.08-2.14v-6.46h1.44v7.03c0,.7.03,1.27.08,1.7.06.43.18.77.36,1.02.18.25.48.41.88.5.4.09.95.13,1.65.13s1.25-.04,1.65-.13c.4-.09.68-.26.87-.5.18-.25.3-.58.34-1.02.04-.43.07-1,.07-1.7v-7.03h1.44v6.46c0,.83-.02,1.55-.08,2.14-.05.59-.16,1.08-.32,1.48-.16.4-.4.71-.73.93-.32.22-.75.38-1.28.48-.53.09-1.18.14-1.96.14Z"/>
        <path class="cls-6" d="M288.11,135.97v-11.49h1.47l5.96,8.8h.07v-8.8h1.39v11.49h-1.39l-6.05-8.97h-.07v8.97h-1.39Z"/>
        <path class="cls-6" d="M300.32,135.97v-11.49h3.64c.95,0,1.72.04,2.32.13.6.09,1.08.25,1.43.48.35.23.61.57.78,1,.17.43.27.99.32,1.65.04.67.07,1.49.07,2.47s-.02,1.8-.07,2.47c-.04.67-.15,1.22-.32,1.65-.17.43-.43.77-.78,1-.35.23-.83.4-1.43.48-.6.09-1.38.13-2.32.13h-3.64ZM301.76,134.74h1.97c.7,0,1.28-.02,1.74-.05.46-.03.82-.12,1.09-.26.27-.14.46-.37.58-.69s.2-.76.24-1.33c.04-.57.06-1.3.06-2.19s-.02-1.62-.06-2.18-.12-1-.25-1.33-.33-.55-.59-.69c-.27-.14-.63-.23-1.08-.26s-1.03-.05-1.73-.05h-1.97v9.02Z"/>
        <path class="cls-6" d="M315.76,135.97v-11.49h5.28c.72,0,1.3.09,1.73.26.43.17.75.42.95.73.21.32.34.69.41,1.11.07.42.1.88.1,1.35,0,.41-.04.84-.11,1.28-.07.44-.23.84-.48,1.19-.25.36-.64.62-1.18.79l1.94,4.78h-1.54l-1.9-4.83.4.2c-.08.02-.17.04-.28.05s-.26.02-.45.02h-3.42v4.56h-1.44ZM317.19,130.16h3.22c.56,0,.99-.04,1.31-.13s.55-.23.7-.42c.15-.19.25-.42.29-.69.04-.27.07-.6.07-.98s-.02-.7-.06-.98c-.04-.27-.13-.5-.27-.68-.14-.18-.36-.32-.67-.42s-.73-.14-1.26-.14h-3.34v4.44Z"/>
        <path class="cls-6" d="M331.44,136.11c-.89,0-1.63-.05-2.21-.14-.58-.09-1.05-.26-1.39-.51s-.59-.59-.74-1.03c-.16-.44-.26-1-.3-1.69-.04-.69-.07-1.52-.07-2.51s.02-1.83.07-2.51c.04-.69.14-1.25.3-1.69.16-.44.4-.78.74-1.03s.8-.42,1.39-.51c.58-.09,1.32-.14,2.21-.14s1.63.05,2.21.14c.58.09,1.05.26,1.39.51s.59.59.74,1.03c.16.44.26,1,.3,1.69.04.68.07,1.52.07,2.51s-.02,1.83-.07,2.51c-.04.68-.15,1.25-.3,1.69-.16.44-.4.78-.74,1.03s-.8.42-1.39.51c-.58.09-1.32.14-2.21.14ZM331.44,134.87c.61,0,1.12-.02,1.52-.06s.72-.13.95-.28.41-.38.53-.71c.12-.33.2-.78.23-1.36.03-.58.04-1.33.04-2.24s-.01-1.66-.04-2.24c-.03-.58-.1-1.03-.23-1.36-.12-.33-.3-.57-.53-.71s-.55-.24-.95-.28-.91-.06-1.52-.06-1.12.02-1.51.06c-.4.04-.71.13-.95.28-.24.14-.42.38-.53.71-.12.33-.19.78-.23,1.36-.03.58-.05,1.33-.05,2.24s.02,1.66.05,2.24c.03.58.11,1.03.23,1.36.12.33.29.57.53.71.24.14.56.24.95.28.4.04.9.06,1.51.06Z"/>
        <path class="cls-6" d="M343.34,136.11c-.8,0-1.48-.05-2.02-.14-.55-.09-.99-.26-1.34-.5-.35-.24-.61-.58-.79-1.02-.18-.44-.31-1-.38-1.7-.07-.69-.1-1.53-.1-2.52s.03-1.83.1-2.51c.07-.69.19-1.25.38-1.69.18-.44.45-.78.79-1.03s.79-.42,1.34-.51c.55-.09,1.22-.14,2.02-.14.31,0,.63.01.96.03.33.02.64.05.94.08.3.03.56.08.79.13v1.15c-.26-.03-.52-.06-.79-.09-.27-.03-.54-.05-.81-.06-.27-.01-.51-.02-.72-.02-.65,0-1.19.03-1.62.08-.43.06-.78.17-1.04.33-.26.16-.45.41-.58.75-.13.34-.21.79-.26,1.35s-.07,1.27-.07,2.13.02,1.57.07,2.13c.04.56.13,1.01.26,1.35.13.34.32.59.58.75.26.16.6.27,1.04.33.43.06.97.08,1.62.08.38,0,.79-.02,1.24-.05.45-.03.83-.07,1.15-.12v1.19c-.23.04-.51.08-.83.11-.32.03-.64.05-.98.08-.33.02-.65.03-.95.03Z"/>
        <path class="cls-6" d="M348.72,135.97v-11.49h1.44v5.03h2.05l3.94-5.03h1.59l-4.36,5.58,4.41,5.91h-1.67l-3.91-5.21h-2.05v5.21h-1.44Z"/>
        <path class="cls-6" d="M358.96,137.98v-.65c.27,0,.47-.03.62-.08.14-.06.24-.16.28-.32.04-.16.07-.38.07-.67v-.28h-.62v-1.64h1.59v1.37c0,.47-.02.85-.08,1.14s-.14.52-.28.68c-.13.16-.33.28-.58.34-.26.07-.59.1-1,.1Z"/>
        <path class="cls-6" d="M370.02,135.97v-10.22h-3.63v-1.27h8.7v1.27h-3.64v10.22h-1.44Z"/>
        <path class="cls-6" d="M376.08,135.97l4.28-5.76-4.21-5.73h1.7l3.34,4.51h.13l3.36-4.51h1.64l-4.21,5.68,4.26,5.81h-1.69l-3.41-4.61h-.13l-3.42,4.61h-1.64Z"/>
      </g>
      <g>
        <path class="cls-3" d="M7.09,51.02L16.24,1.08h19.09l9.15,49.94h-13.14l-1.16-8.49h-9.07l-1.16,8.49H7.09ZM22.7,32.15h5.88l-2.69-19.53h-.51l-2.69,19.53Z"/>
        <path class="cls-3" d="M47.45,51.02V1.08h12.56l6.97,19.38h.44V1.08h12.41v49.94h-11.54l-8.06-22.5h-.36v22.5h-12.41Z"/>
        <path class="cls-3" d="M85.63,51.02V1.08h12.56l6.97,19.38h.44V1.08h12.41v49.94h-11.54l-8.06-22.5h-.36v22.5h-12.41Z"/>
        <path class="cls-3" d="M139.27,51.6c-2.9,0-5.31-.19-7.22-.58-1.91-.39-3.44-1.06-4.57-2.03-1.14-.97-1.98-2.31-2.54-4.03-.56-1.72-.92-3.92-1.09-6.61-.17-2.69-.25-5.94-.25-9.76V1.08h13.07v31c0,2.13.02,3.79.07,4.97.05,1.19.15,2.04.29,2.58.15.53.4.86.76.98s.86.18,1.49.18,1.13-.06,1.49-.18.62-.45.76-.98c.15-.53.24-1.39.29-2.58.05-1.18.07-2.84.07-4.97V1.08h13.07v27.51c0,3.82-.08,7.08-.25,9.76-.17,2.69-.53,4.89-1.09,6.61-.56,1.72-1.4,3.06-2.54,4.03-1.14.97-2.66,1.65-4.57,2.03-1.91.39-4.32.58-7.22.58Z"/>
        <path class="cls-3" d="M157.71,51.02L166.86,1.08h19.09l9.15,49.94h-13.14l-1.16-8.49h-9.07l-1.16,8.49h-12.85ZM173.32,32.15h5.88l-2.69-19.53h-.51l-2.69,19.53Z"/>
        <path class="cls-3" d="M198.07,51.02V1.08h13.07v38.83h11.03v11.11h-24.1Z"/>
        <path class="cls-3" d="M239.16,51.02V1.08h13.07v19.02h5.81V1.08h13.07v49.94h-13.07v-19.31h-5.81v19.31h-13.07Z"/>
        <path class="cls-3" d="M292.44,51.6c-2.86,0-5.25-.17-7.19-.51-1.94-.34-3.51-1-4.72-2-1.21-.99-2.13-2.43-2.76-4.32-.63-1.89-1.05-4.36-1.27-7.4s-.33-6.82-.33-11.32.11-8.28.33-11.32c.22-3.05.64-5.52,1.27-7.4.63-1.89,1.55-3.33,2.76-4.32,1.21-.99,2.78-1.66,4.72-2,1.93-.34,4.33-.51,7.19-.51s5.26.17,7.22.51c1.96.34,3.54,1,4.75,2,1.21.99,2.13,2.43,2.76,4.32.63,1.89,1.05,4.36,1.27,7.4.22,3.05.33,6.82.33,11.32s-.11,8.28-.33,11.32-.64,5.52-1.27,7.4c-.63,1.89-1.55,3.33-2.76,4.32-1.21.99-2.79,1.66-4.75,2s-4.37.51-7.22.51ZM292.44,40.86c.63,0,1.14-.06,1.52-.18.39-.12.7-.41.94-.87.24-.46.41-1.21.51-2.25.1-1.04.16-2.49.18-4.36.02-1.86.04-4.25.04-7.15s-.01-5.29-.04-7.15c-.02-1.86-.08-3.31-.18-4.36-.1-1.04-.27-1.79-.51-2.25-.24-.46-.56-.75-.94-.87-.39-.12-.9-.18-1.52-.18s-1.14.06-1.52.18c-.39.12-.69.41-.91.87-.22.46-.38,1.21-.47,2.25-.1,1.04-.16,2.49-.18,4.36-.02,1.86-.04,4.25-.04,7.15s.01,5.29.04,7.15c.02,1.86.08,3.32.18,4.36.1,1.04.25,1.79.47,2.25s.52.75.91.87c.39.12.9.18,1.52.18Z"/>
        <path class="cls-3" d="M313.85,51.02V1.08h13.07v38.83h11.03v11.11h-24.1Z"/>
        <path class="cls-3" d="M341.79,51.02V1.08h13.07v49.94h-13.07Z"/>
        <path class="cls-3" d="M360.67,51.02V1.08h14.52c3.34,0,6.06.25,8.17.76,2.11.51,3.75,1.34,4.94,2.5,1.19,1.16,2.03,2.71,2.54,4.65.51,1.94.81,4.31.91,7.11.1,2.81.15,6.12.15,9.94s-.05,7.14-.15,9.94c-.1,2.81-.4,5.18-.91,7.11-.51,1.94-1.36,3.48-2.54,4.65-1.19,1.16-2.83,2-4.94,2.5-2.1.51-4.83.76-8.17.76h-14.52ZM373.66,40.28h1.6c.73,0,1.31-.06,1.74-.18.44-.12.79-.41,1.05-.87.27-.46.45-1.18.54-2.18.1-.99.16-2.38.18-4.17.02-1.79.04-4.06.04-6.82s-.01-5.18-.04-6.97c-.02-1.79-.09-3.18-.18-4.17-.1-.99-.28-1.71-.54-2.14-.27-.44-.62-.7-1.05-.8-.44-.1-1.02-.15-1.74-.15h-1.6v28.46Z"/>
        <path class="cls-3" d="M394.13,51.02l9.15-49.94h19.09l9.15,49.94h-13.14l-1.16-8.49h-9.07l-1.16,8.49h-12.85ZM409.74,32.15h5.88l-2.69-19.53h-.51l-2.69,19.53Z"/>
        <path class="cls-3" d="M439.21,51.02v-16.62l-11.4-33.32h13.14l4.72,20.18h.65l4.5-20.18h12.85l-11.4,33.32v16.62h-13.07Z"/>
        <path class="cls-3" d="M29.56,104.29c-2.76,0-5.12-.23-7.08-.69-1.96-.46-3.58-1.25-4.86-2.36-1.28-1.11-2.3-2.64-3.05-4.57-.75-1.93-1.27-4.38-1.56-7.33-.29-2.95-.44-6.48-.44-10.6s.16-7.72.47-10.67c.31-2.95.86-5.4,1.63-7.33.77-1.93,1.84-3.45,3.19-4.54,1.35-1.09,3.06-1.86,5.12-2.32,2.06-.46,4.54-.69,7.44-.69,1.26,0,2.66.07,4.21.22,1.55.14,3.1.33,4.65.54,1.55.22,2.95.47,4.21.76v9.94c-1.55-.19-2.93-.34-4.14-.44-1.21-.1-2.25-.17-3.12-.22-.87-.05-1.6-.07-2.18-.07-1.6,0-2.92.05-3.96.14-1.04.1-1.88.36-2.5.8-.63.44-1.1,1.17-1.42,2.21-.32,1.04-.52,2.5-.62,4.39-.1,1.89-.15,4.31-.15,7.26s.05,5.53.15,7.44c.1,1.91.24,3.4.44,4.46.19,1.07.47,1.83.83,2.29s.81.74,1.34.83c.53.1,1.16.14,1.89.14.24,0,.48-.01.73-.04.24-.02.47-.05.69-.07s.42-.04.62-.04v-9.8h-3.12v-10.24h14.66v28.96c-1.21.34-2.63.62-4.25.83-1.62.22-3.28.4-4.97.54-1.69.14-3.32.22-4.86.22Z"/>
        <path class="cls-3" d="M46.33,103.71l9.15-49.94h19.09l9.15,49.94h-13.14l-1.16-8.49h-9.07l-1.16,8.49h-12.85ZM61.93,84.84h5.88l-2.69-19.53h-.51l-2.69,19.53Z"/>
        <path class="cls-3" d="M90.75,103.71v-38.83h-8.64v-11.11h30.41v11.11h-8.64v38.83h-13.14Z"/>
        <path class="cls-3" d="M115.94,103.71v-49.94h13.07v19.02h5.81v-19.02h13.07v49.94h-13.07v-19.31h-5.81v19.31h-13.07Z"/>
        <path class="cls-3" d="M153.69,103.71v-49.94h25.62v10.74h-12.56v8.64h10.67v10.67h-10.67v9.15h12.56v10.74h-25.62Z"/>
        <path class="cls-3" d="M184.61,103.71v-49.94h18.37c2.9,0,5.24.36,7,1.09,1.77.73,3.08,1.82,3.96,3.27.87,1.45,1.45,3.21,1.74,5.26.29,2.06.44,4.44.44,7.15,0,2.18-.1,4.19-.29,6.02-.19,1.84-.61,3.46-1.23,4.86-.63,1.4-1.57,2.59-2.83,3.56l5.52,18.73h-13.43l-4.28-17.86,1.45,1.23c-.19.1-.42.16-.69.18-.27.03-.71.04-1.34.04h-1.31v16.41h-13.07ZM197.67,77h1.96c.82,0,1.46-.08,1.92-.25.46-.17.79-.47.98-.91.19-.44.31-1.08.36-1.92.05-.85.07-1.92.07-3.23,0-1.4-.02-2.52-.07-3.34-.05-.82-.17-1.44-.36-1.85-.19-.41-.52-.69-.98-.83-.46-.15-1.1-.22-1.92-.22h-1.96v12.56Z"/>
        <path class="cls-3" d="M220.97,103.71v-49.94h13.07v49.94h-13.07Z"/>
        <path class="cls-3" d="M239.85,103.71v-49.94h12.56l6.97,19.38h.44v-19.38h12.41v49.94h-11.54l-8.06-22.5h-.36v22.5h-12.41Z"/>
        <path class="cls-3" d="M294.29,104.29c-2.76,0-5.12-.23-7.08-.69-1.96-.46-3.58-1.25-4.86-2.36-1.28-1.11-2.3-2.64-3.05-4.57-.75-1.93-1.27-4.38-1.56-7.33-.29-2.95-.44-6.48-.44-10.6s.16-7.72.47-10.67c.31-2.95.86-5.4,1.63-7.33.77-1.93,1.84-3.45,3.19-4.54,1.35-1.09,3.06-1.86,5.12-2.32,2.06-.46,4.54-.69,7.44-.69,1.26,0,2.66.07,4.21.22,1.55.14,3.1.33,4.65.54,1.55.22,2.95.47,4.21.76v9.94c-1.55-.19-2.93-.34-4.14-.44-1.21-.1-2.25-.17-3.12-.22-.87-.05-1.6-.07-2.18-.07-1.6,0-2.92.05-3.96.14-1.04.1-1.88.36-2.5.8-.63.44-1.1,1.17-1.42,2.21-.32,1.04-.52,2.5-.62,4.39-.1,1.89-.15,4.31-.15,7.26s.05,5.53.15,7.44c.1,1.91.24,3.4.44,4.46.19,1.07.47,1.83.83,2.29s.81.74,1.34.83c.53.1,1.16.14,1.89.14.24,0,.48-.01.73-.04.24-.02.47-.05.69-.07s.42-.04.62-.04v-9.8h-3.12v-10.24h14.66v28.96c-1.21.34-2.63.62-4.25.83-1.62.22-3.28.4-4.97.54-1.69.14-3.32.22-4.86.22Z"/>
        <path class="cls-3" d="M326.3,103.71v-6.68c0-3.05.04-5.65.11-7.8.07-2.15.27-3.97.58-5.44.31-1.48.83-2.71,1.56-3.7.73-.99,1.77-1.83,3.12-2.5l7.4-3.77c.77-.39,1.4-.76,1.89-1.12.48-.36.83-.87,1.05-1.52s.33-1.58.33-2.79c0-1.35-.11-2.35-.33-2.98-.22-.63-.69-1.03-1.42-1.2-.73-.17-1.86-.25-3.41-.25-.82,0-1.75.02-2.79.07-1.04.05-2.18.11-3.41.18-1.23.07-2.58.18-4.03.33v-9.94c1.16-.29,2.52-.53,4.06-.73,1.55-.19,3.16-.35,4.83-.47,1.67-.12,3.23-.18,4.68-.18,2.81,0,5.17.27,7.08.8,1.91.53,3.44,1.37,4.57,2.5,1.14,1.14,1.96,2.64,2.47,4.5.51,1.86.76,4.1.76,6.71,0,2.95-.23,5.35-.69,7.19-.46,1.84-1.15,3.29-2.07,4.35-.92,1.07-2.03,1.94-3.34,2.61l-7.91,3.92c-.58.29-1.04.58-1.38.87-.34.29-.57.69-.69,1.2-.12.51-.18,1.29-.18,2.36v2.69h16.26v10.82h-29.11Z"/>
        <path class="cls-3" d="M375.22,104.29c-3.05,0-5.54-.28-7.48-.83-1.94-.56-3.45-1.44-4.54-2.65-1.09-1.21-1.88-2.81-2.36-4.79-.48-1.98-.77-4.4-.87-7.26-.1-2.85-.15-6.19-.15-10.02s.05-7.16.15-10.02c.1-2.85.39-5.27.87-7.26.48-1.98,1.27-3.58,2.36-4.79s2.6-2.09,4.54-2.65c1.94-.56,4.43-.83,7.48-.83s5.53.28,7.44.83c1.91.56,3.41,1.44,4.5,2.65s1.88,2.81,2.36,4.79c.48,1.99.77,4.4.87,7.26.1,2.86.15,6.2.15,10.02s-.05,7.16-.15,10.02c-.1,2.86-.39,5.28-.87,7.26-.48,1.98-1.27,3.58-2.36,4.79-1.09,1.21-2.59,2.09-4.5,2.65-1.91.56-4.39.83-7.44.83ZM375.22,93.55c.48,0,.88-.06,1.2-.18.31-.12.56-.42.73-.91.17-.48.29-1.25.36-2.29.07-1.04.12-2.49.15-4.36.02-1.86.04-4.22.04-7.08s-.01-5.2-.04-7.04c-.02-1.84-.07-3.29-.15-4.36-.07-1.06-.19-1.84-.36-2.32-.17-.48-.41-.79-.73-.91-.32-.12-.71-.18-1.2-.18s-.9.06-1.23.18c-.34.12-.59.42-.76.91-.17.48-.29,1.26-.36,2.32-.07,1.07-.12,2.52-.15,4.36-.02,1.84-.04,4.19-.04,7.04s.01,5.21.04,7.08c.02,1.86.07,3.32.15,4.36.07,1.04.19,1.8.36,2.29.17.48.42.79.76.91.34.12.75.18,1.23.18Z"/>
        <path class="cls-3" d="M394.89,103.71v-6.68c0-3.05.04-5.65.11-7.8.07-2.15.27-3.97.58-5.44.31-1.48.83-2.71,1.56-3.7.73-.99,1.77-1.83,3.12-2.5l7.4-3.77c.77-.39,1.4-.76,1.89-1.12.48-.36.83-.87,1.05-1.52s.33-1.58.33-2.79c0-1.35-.11-2.35-.33-2.98-.22-.63-.69-1.03-1.42-1.2-.73-.17-1.86-.25-3.41-.25-.82,0-1.75.02-2.79.07-1.04.05-2.18.11-3.41.18-1.23.07-2.58.18-4.03.33v-9.94c1.16-.29,2.52-.53,4.06-.73,1.55-.19,3.16-.35,4.83-.47,1.67-.12,3.23-.18,4.68-.18,2.81,0,5.17.27,7.08.8,1.91.53,3.44,1.37,4.57,2.5,1.14,1.14,1.96,2.64,2.47,4.5.51,1.86.76,4.1.76,6.71,0,2.95-.23,5.35-.69,7.19-.46,1.84-1.15,3.29-2.07,4.35-.92,1.07-2.03,1.94-3.34,2.61l-7.91,3.92c-.58.29-1.04.58-1.38.87-.34.29-.57.69-.69,1.2-.12.51-.18,1.29-.18,2.36v2.69h16.26v10.82h-29.11Z"/>
        <path class="cls-3" d="M442.58,104.29c-1.26,0-2.67-.06-4.25-.18-1.57-.12-3.13-.29-4.68-.51-1.55-.22-2.98-.45-4.28-.69v-9.87c1.35.1,2.61.19,3.77.29,1.16.1,2.25.16,3.27.18,1.02.02,1.94.04,2.76.04,1.4,0,2.5-.05,3.3-.15.8-.1,1.39-.33,1.78-.69.39-.36.64-.93.76-1.71.12-.77.18-1.84.18-3.19s-.06-2.42-.18-3.19c-.12-.77-.38-1.34-.76-1.71-.39-.36-.97-.6-1.74-.73-.77-.12-1.84-.18-3.19-.18-1.07,0-2.13.01-3.19.04-1.07.03-2.13.07-3.19.15-1.07.07-2.13.18-3.19.33v-28.75h26.42v10.82h-14.81v7.11c.48-.1.99-.17,1.52-.22.53-.05,1.09-.08,1.67-.11.58-.02,1.19-.04,1.82-.04,2.22,0,4.1.32,5.62.94s2.75,1.58,3.67,2.87c.92,1.28,1.58,2.89,2,4.83s.62,4.21.62,6.82c0,3.24-.24,5.98-.73,8.2-.48,2.23-1.31,4.02-2.47,5.37-1.16,1.36-2.76,2.35-4.79,2.98-2.03.63-4.6.94-7.7.94Z"/>
      </g>
      <g>
        <path class="cls-4" d="M.5,51.02L9.65,1.08h19.09l9.15,49.94h-13.14l-1.16-8.49h-9.07l-1.16,8.49H.5ZM16.11,32.15h5.88l-2.69-19.53h-.51l-2.69,19.53Z"/>
        <path class="cls-4" d="M40.86,51.02V1.08h12.56l6.97,19.38h.44V1.08h12.41v49.94h-11.54l-8.06-22.5h-.36v22.5h-12.41Z"/>
        <path class="cls-4" d="M79.04,51.02V1.08h12.56l6.97,19.38h.44V1.08h12.41v49.94h-11.54l-8.06-22.5h-.36v22.5h-12.41Z"/>
        <path class="cls-4" d="M132.68,51.6c-2.9,0-5.31-.19-7.22-.58-1.91-.39-3.44-1.06-4.57-2.03-1.14-.97-1.98-2.31-2.54-4.03-.56-1.72-.92-3.92-1.09-6.61-.17-2.69-.25-5.94-.25-9.76V1.08h13.07v31c0,2.13.02,3.79.07,4.97.05,1.19.15,2.04.29,2.58.15.53.4.86.76.98s.86.18,1.49.18,1.13-.06,1.49-.18.62-.45.76-.98c.15-.53.24-1.39.29-2.58.05-1.18.07-2.84.07-4.97V1.08h13.07v27.51c0,3.82-.08,7.08-.25,9.76-.17,2.69-.53,4.89-1.09,6.61-.56,1.72-1.4,3.06-2.54,4.03-1.14.97-2.66,1.65-4.57,2.03-1.91.39-4.32.58-7.22.58Z"/>
        <path class="cls-4" d="M151.12,51.02L160.27,1.08h19.09l9.15,49.94h-13.14l-1.16-8.49h-9.07l-1.16,8.49h-12.85ZM166.73,32.15h5.88l-2.69-19.53h-.51l-2.69,19.53Z"/>
        <path class="cls-4" d="M191.48,51.02V1.08h13.07v38.83h11.03v11.11h-24.1Z"/>
        <path class="cls-4" d="M232.56,51.02V1.08h13.07v19.02h5.81V1.08h13.07v49.94h-13.07v-19.31h-5.81v19.31h-13.07Z"/>
        <path class="cls-4" d="M285.84,51.6c-2.86,0-5.25-.17-7.19-.51-1.94-.34-3.51-1-4.72-2-1.21-.99-2.13-2.43-2.76-4.32-.63-1.89-1.05-4.36-1.27-7.4s-.33-6.82-.33-11.32.11-8.28.33-11.32c.22-3.05.64-5.52,1.27-7.4.63-1.89,1.55-3.33,2.76-4.32,1.21-.99,2.78-1.66,4.72-2,1.93-.34,4.33-.51,7.19-.51s5.26.17,7.22.51c1.96.34,3.54,1,4.75,2,1.21.99,2.13,2.43,2.76,4.32.63,1.89,1.05,4.36,1.27,7.4.22,3.05.33,6.82.33,11.32s-.11,8.28-.33,11.32-.64,5.52-1.27,7.4c-.63,1.89-1.55,3.33-2.76,4.32-1.21.99-2.79,1.66-4.75,2s-4.37.51-7.22.51ZM285.84,40.86c.63,0,1.14-.06,1.52-.18.39-.12.7-.41.94-.87.24-.46.41-1.21.51-2.25.1-1.04.16-2.49.18-4.36.02-1.86.04-4.25.04-7.15s-.01-5.29-.04-7.15c-.02-1.86-.08-3.31-.18-4.36-.1-1.04-.27-1.79-.51-2.25-.24-.46-.56-.75-.94-.87-.39-.12-.9-.18-1.52-.18s-1.14.06-1.52.18c-.39.12-.69.41-.91.87-.22.46-.38,1.21-.47,2.25-.1,1.04-.16,2.49-.18,4.36-.02,1.86-.04,4.25-.04,7.15s.01,5.29.04,7.15c.02,1.86.08,3.32.18,4.36.1,1.04.25,1.79.47,2.25s.52.75.91.87c.39.12.9.18,1.52.18Z"/>
        <path class="cls-4" d="M307.26,51.02V1.08h13.07v38.83h11.03v11.11h-24.1Z"/>
        <path class="cls-4" d="M335.2,51.02V1.08h13.07v49.94h-13.07Z"/>
        <path class="cls-4" d="M354.07,51.02V1.08h14.52c3.34,0,6.06.25,8.17.76,2.11.51,3.75,1.34,4.94,2.5,1.19,1.16,2.03,2.71,2.54,4.65.51,1.94.81,4.31.91,7.11.1,2.81.15,6.12.15,9.94s-.05,7.14-.15,9.94c-.1,2.81-.4,5.18-.91,7.11-.51,1.94-1.36,3.48-2.54,4.65-1.19,1.16-2.83,2-4.94,2.5-2.1.51-4.83.76-8.17.76h-14.52ZM367.07,40.28h1.6c.73,0,1.31-.06,1.74-.18.44-.12.79-.41,1.05-.87.27-.46.45-1.18.54-2.18.1-.99.16-2.38.18-4.17.02-1.79.04-4.06.04-6.82s-.01-5.18-.04-6.97c-.02-1.79-.09-3.18-.18-4.17-.1-.99-.28-1.71-.54-2.14-.27-.44-.62-.7-1.05-.8-.44-.1-1.02-.15-1.74-.15h-1.6v28.46Z"/>
        <path class="cls-4" d="M387.54,51.02l9.15-49.94h19.09l9.15,49.94h-13.14l-1.16-8.49h-9.07l-1.16,8.49h-12.85ZM403.14,32.15h5.88l-2.69-19.53h-.51l-2.69,19.53Z"/>
        <path class="cls-4" d="M432.62,51.02v-16.62l-11.4-33.32h13.14l4.72,20.18h.65l4.5-20.18h12.85l-11.4,33.32v16.62h-13.07Z"/>
        <path class="cls-4" d="M22.97,104.29c-2.76,0-5.12-.23-7.08-.69-1.96-.46-3.58-1.25-4.86-2.36-1.28-1.11-2.3-2.64-3.05-4.57-.75-1.93-1.27-4.38-1.56-7.33-.29-2.95-.44-6.48-.44-10.6s.16-7.72.47-10.67c.31-2.95.86-5.4,1.63-7.33.77-1.93,1.84-3.45,3.19-4.54,1.35-1.09,3.06-1.86,5.12-2.32,2.06-.46,4.54-.69,7.44-.69,1.26,0,2.66.07,4.21.22,1.55.14,3.1.33,4.65.54,1.55.22,2.95.47,4.21.76v9.94c-1.55-.19-2.93-.34-4.14-.44-1.21-.1-2.25-.17-3.12-.22-.87-.05-1.6-.07-2.18-.07-1.6,0-2.92.05-3.96.14-1.04.1-1.88.36-2.5.8-.63.44-1.1,1.17-1.42,2.21-.32,1.04-.52,2.5-.62,4.39-.1,1.89-.15,4.31-.15,7.26s.05,5.53.15,7.44c.1,1.91.24,3.4.44,4.46.19,1.07.47,1.83.83,2.29s.81.74,1.34.83c.53.1,1.16.14,1.89.14.24,0,.48-.01.73-.04.24-.02.47-.05.69-.07s.42-.04.62-.04v-9.8h-3.12v-10.24h14.66v28.96c-1.21.34-2.63.62-4.25.83-1.62.22-3.28.4-4.97.54-1.69.14-3.32.22-4.86.22Z"/>
        <path class="cls-4" d="M39.73,103.71l9.15-49.94h19.09l9.15,49.94h-13.14l-1.16-8.49h-9.07l-1.16,8.49h-12.85ZM55.34,84.84h5.88l-2.69-19.53h-.51l-2.69,19.53Z"/>
        <path class="cls-4" d="M84.16,103.71v-38.83h-8.64v-11.11h30.41v11.11h-8.64v38.83h-13.14Z"/>
        <path class="cls-4" d="M109.35,103.71v-49.94h13.07v19.02h5.81v-19.02h13.07v49.94h-13.07v-19.31h-5.81v19.31h-13.07Z"/>
        <path class="cls-4" d="M147.09,103.71v-49.94h25.62v10.74h-12.56v8.64h10.67v10.67h-10.67v9.15h12.56v10.74h-25.62Z"/>
        <path class="cls-4" d="M178.02,103.71v-49.94h18.37c2.9,0,5.24.36,7,1.09,1.77.73,3.08,1.82,3.96,3.27.87,1.45,1.45,3.21,1.74,5.26.29,2.06.44,4.44.44,7.15,0,2.18-.1,4.19-.29,6.02-.19,1.84-.61,3.46-1.23,4.86-.63,1.4-1.57,2.59-2.83,3.56l5.52,18.73h-13.43l-4.28-17.86,1.45,1.23c-.19.1-.42.16-.69.18-.27.03-.71.04-1.34.04h-1.31v16.41h-13.07ZM191.08,77h1.96c.82,0,1.46-.08,1.92-.25.46-.17.79-.47.98-.91.19-.44.31-1.08.36-1.92.05-.85.07-1.92.07-3.23,0-1.4-.02-2.52-.07-3.34-.05-.82-.17-1.44-.36-1.85-.19-.41-.52-.69-.98-.83-.46-.15-1.1-.22-1.92-.22h-1.96v12.56Z"/>
        <path class="cls-4" d="M214.38,103.71v-49.94h13.07v49.94h-13.07Z"/>
        <path class="cls-4" d="M233.25,103.71v-49.94h12.56l6.97,19.38h.44v-19.38h12.41v49.94h-11.54l-8.06-22.5h-.36v22.5h-12.41Z"/>
        <path class="cls-4" d="M287.69,104.29c-2.76,0-5.12-.23-7.08-.69-1.96-.46-3.58-1.25-4.86-2.36-1.28-1.11-2.3-2.64-3.05-4.57-.75-1.93-1.27-4.38-1.56-7.33-.29-2.95-.44-6.48-.44-10.6s.16-7.72.47-10.67c.31-2.95.86-5.4,1.63-7.33.77-1.93,1.84-3.45,3.19-4.54,1.35-1.09,3.06-1.86,5.12-2.32,2.06-.46,4.54-.69,7.44-.69,1.26,0,2.66.07,4.21.22,1.55.14,3.1.33,4.65.54,1.55.22,2.95.47,4.21.76v9.94c-1.55-.19-2.93-.34-4.14-.44-1.21-.1-2.25-.17-3.12-.22-.87-.05-1.6-.07-2.18-.07-1.6,0-2.92.05-3.96.14-1.04.1-1.88.36-2.5.8-.63.44-1.1,1.17-1.42,2.21-.32,1.04-.52,2.5-.62,4.39-.1,1.89-.15,4.31-.15,7.26s.05,5.53.15,7.44c.1,1.91.24,3.4.44,4.46.19,1.07.47,1.83.83,2.29s.81.74,1.34.83c.53.1,1.16.14,1.89.14.24,0,.48-.01.73-.04.24-.02.47-.05.69-.07s.42-.04.62-.04v-9.8h-3.12v-10.24h14.66v28.96c-1.21.34-2.63.62-4.25.83-1.62.22-3.28.4-4.97.54-1.69.14-3.32.22-4.86.22Z"/>
        <path class="cls-4" d="M319.71,103.71v-6.68c0-3.05.04-5.65.11-7.8.07-2.15.27-3.97.58-5.44.31-1.48.83-2.71,1.56-3.7.73-.99,1.77-1.83,3.12-2.5l7.4-3.77c.77-.39,1.4-.76,1.89-1.12.48-.36.83-.87,1.05-1.52s.33-1.58.33-2.79c0-1.35-.11-2.35-.33-2.98-.22-.63-.69-1.03-1.42-1.2-.73-.17-1.86-.25-3.41-.25-.82,0-1.75.02-2.79.07-1.04.05-2.18.11-3.41.18-1.23.07-2.58.18-4.03.33v-9.94c1.16-.29,2.52-.53,4.06-.73,1.55-.19,3.16-.35,4.83-.47,1.67-.12,3.23-.18,4.68-.18,2.81,0,5.17.27,7.08.8,1.91.53,3.44,1.37,4.57,2.5,1.14,1.14,1.96,2.64,2.47,4.5.51,1.86.76,4.1.76,6.71,0,2.95-.23,5.35-.69,7.19-.46,1.84-1.15,3.29-2.07,4.35-.92,1.07-2.03,1.94-3.34,2.61l-7.91,3.92c-.58.29-1.04.58-1.38.87-.34.29-.57.69-.69,1.2-.12.51-.18,1.29-.18,2.36v2.69h16.26v10.82h-29.11Z"/>
        <path class="cls-4" d="M368.63,104.29c-3.05,0-5.54-.28-7.48-.83-1.94-.56-3.45-1.44-4.54-2.65-1.09-1.21-1.88-2.81-2.36-4.79-.48-1.98-.77-4.4-.87-7.26-.1-2.85-.15-6.19-.15-10.02s.05-7.16.15-10.02c.1-2.85.39-5.27.87-7.26.48-1.98,1.27-3.58,2.36-4.79s2.6-2.09,4.54-2.65c1.94-.56,4.43-.83,7.48-.83s5.53.28,7.44.83c1.91.56,3.41,1.44,4.5,2.65s1.88,2.81,2.36,4.79c.48,1.99.77,4.4.87,7.26.1,2.86.15,6.2.15,10.02s-.05,7.16-.15,10.02c-.1,2.86-.39,5.28-.87,7.26-.48,1.98-1.27,3.58-2.36,4.79-1.09,1.21-2.59,2.09-4.5,2.65-1.91.56-4.39.83-7.44.83ZM368.63,93.55c.48,0,.88-.06,1.2-.18.31-.12.56-.42.73-.91.17-.48.29-1.25.36-2.29.07-1.04.12-2.49.15-4.36.02-1.86.04-4.22.04-7.08s-.01-5.2-.04-7.04c-.02-1.84-.07-3.29-.15-4.36-.07-1.06-.19-1.84-.36-2.32-.17-.48-.41-.79-.73-.91-.32-.12-.71-.18-1.2-.18s-.9.06-1.23.18c-.34.12-.59.42-.76.91-.17.48-.29,1.26-.36,2.32-.07,1.07-.12,2.52-.15,4.36-.02,1.84-.04,4.19-.04,7.04s.01,5.21.04,7.08c.02,1.86.07,3.32.15,4.36.07,1.04.19,1.8.36,2.29.17.48.42.79.76.91.34.12.75.18,1.23.18Z"/>
        <path class="cls-4" d="M388.3,103.71v-6.68c0-3.05.04-5.65.11-7.8.07-2.15.27-3.97.58-5.44.31-1.48.83-2.71,1.56-3.7.73-.99,1.77-1.83,3.12-2.5l7.4-3.77c.77-.39,1.4-.76,1.89-1.12.48-.36.83-.87,1.05-1.52s.33-1.58.33-2.79c0-1.35-.11-2.35-.33-2.98-.22-.63-.69-1.03-1.42-1.2-.73-.17-1.86-.25-3.41-.25-.82,0-1.75.02-2.79.07-1.04.05-2.18.11-3.41.18-1.23.07-2.58.18-4.03.33v-9.94c1.16-.29,2.52-.53,4.06-.73,1.55-.19,3.16-.35,4.83-.47,1.67-.12,3.23-.18,4.68-.18,2.81,0,5.17.27,7.08.8,1.91.53,3.44,1.37,4.57,2.5,1.14,1.14,1.96,2.64,2.47,4.5.51,1.86.76,4.1.76,6.71,0,2.95-.23,5.35-.69,7.19-.46,1.84-1.15,3.29-2.07,4.35-.92,1.07-2.03,1.94-3.34,2.61l-7.91,3.92c-.58.29-1.04.58-1.38.87-.34.29-.57.69-.69,1.2-.12.51-.18,1.29-.18,2.36v2.69h16.26v10.82h-29.11Z"/>
        <path class="cls-4" d="M435.99,104.29c-1.26,0-2.67-.06-4.25-.18-1.57-.12-3.13-.29-4.68-.51-1.55-.22-2.98-.45-4.28-.69v-9.87c1.35.1,2.61.19,3.77.29,1.16.1,2.25.16,3.27.18,1.02.02,1.93.04,2.76.04,1.4,0,2.5-.05,3.3-.15.8-.1,1.39-.33,1.78-.69.39-.36.64-.93.76-1.71.12-.77.18-1.84.18-3.19s-.06-2.42-.18-3.19c-.12-.77-.38-1.34-.76-1.71-.39-.36-.97-.6-1.74-.73-.77-.12-1.84-.18-3.19-.18-1.07,0-2.13.01-3.19.04-1.06.03-2.13.07-3.19.15-1.06.07-2.13.18-3.19.33v-28.75h26.42v10.82h-14.81v7.11c.48-.1.99-.17,1.52-.22.53-.05,1.09-.08,1.67-.11.58-.02,1.19-.04,1.82-.04,2.22,0,4.1.32,5.62.94s2.75,1.58,3.67,2.87c.92,1.28,1.58,2.89,2,4.83s.62,4.21.62,6.82c0,3.24-.24,5.98-.73,8.2-.48,2.23-1.31,4.02-2.47,5.37-1.16,1.36-2.76,2.35-4.79,2.98-2.03.63-4.6.94-7.7.94Z"/>
      </g>
    </g>
  </g>
</svg>