<?xml version="1.0" encoding="UTF-8"?>
<svg id="Layer_2" data-name="Layer 2" xmlns="http://www.w3.org/2000/svg" viewBox="0 0 224.79 51.68">
  <defs>
    <style>
      .cls-1 {
        fill: #242d35;
      }

      .cls-1, .cls-2 {
        stroke: #242d35;
        stroke-linejoin: round;
        stroke-width: .5px;
      }

      .cls-2 {
        fill: #f0f4f7;
        stroke-linecap: round;
      }
    </style>
  </defs>
  <g id="Layer_1-2" data-name="Layer 1">
    <g>
      <path class="cls-1" d="M60.7,25.02L65.24.25h9.47l4.54,24.77h-6.52l-.58-4.21h-4.5l-.58,4.21h-6.37ZM68.44,15.66h2.92l-1.33-9.68h-.25l-1.33,9.68Z"/>
      <path class="cls-1" d="M80.71,25.02V.25h6.23l3.46,9.61h.22V.25h6.16v24.77h-5.72l-4-11.16h-.18v11.16h-6.16Z"/>
      <path class="cls-1" d="M99.65,25.02V.25h6.23l3.46,9.61h.22V.25h6.16v24.77h-5.72l-4-11.16h-.18v11.16h-6.16Z"/>
      <path class="cls-1" d="M126.25,25.3c-1.44,0-2.63-.1-3.58-.29-.95-.19-1.7-.53-2.27-1.01-.56-.48-.98-1.15-1.26-2-.28-.85-.46-1.94-.54-3.28-.08-1.33-.13-2.95-.13-4.84V.25h6.48v15.37c0,1.06.01,1.88.04,2.47.02.59.07,1.01.14,1.28.07.26.2.43.38.49.18.06.43.09.74.09s.56-.03.74-.09c.18-.06.31-.22.38-.49.07-.26.12-.69.14-1.28.02-.59.04-1.41.04-2.47V.25h6.48v13.64c0,1.9-.04,3.51-.13,4.84-.08,1.33-.26,2.42-.54,3.28-.28.85-.7,1.52-1.26,2-.56.48-1.32.82-2.27,1.01-.95.19-2.14.29-3.58.29Z"/>
      <path class="cls-1" d="M135.39,25.02L139.93.25h9.47l4.54,24.77h-6.52l-.58-4.21h-4.5l-.58,4.21h-6.37ZM143.13,15.66h2.92l-1.33-9.68h-.25l-1.33,9.68Z"/>
      <path class="cls-1" d="M155.41,25.02V.25h6.48v19.26h5.47v5.51h-11.95Z"/>
      <path class="cls-2" d="M57.43,25.02L61.97.25h9.47l4.54,24.77h-6.52l-.58-4.21h-4.5l-.58,4.21h-6.37ZM65.17,15.66h2.92l-1.33-9.68h-.25l-1.33,9.68Z"/>
      <path class="cls-2" d="M77.44,25.02V.25h6.23l3.46,9.61h.22V.25h6.16v24.77h-5.72l-4-11.16h-.18v11.16h-6.16Z"/>
      <path class="cls-2" d="M96.38,25.02V.25h6.23l3.46,9.61h.22V.25h6.16v24.77h-5.72l-4-11.16h-.18v11.16h-6.16Z"/>
      <path class="cls-2" d="M122.98,25.3c-1.44,0-2.63-.1-3.58-.29-.95-.19-1.7-.53-2.27-1.01-.56-.48-.98-1.15-1.26-2-.28-.85-.46-1.94-.54-3.28-.08-1.33-.13-2.95-.13-4.84V.25h6.48v15.37c0,1.06.01,1.88.04,2.47.02.59.07,1.01.14,1.28.07.26.2.43.38.49.18.06.43.09.74.09s.56-.03.74-.09c.18-.06.31-.22.38-.49.07-.26.12-.69.14-1.28.02-.59.04-1.41.04-2.47V.25h6.48v13.64c0,1.9-.04,3.51-.13,4.84-.08,1.33-.26,2.42-.54,3.28-.28.85-.7,1.52-1.26,2-.56.48-1.32.82-2.27,1.01-.95.19-2.14.29-3.58.29Z"/>
      <path class="cls-2" d="M132.12,25.02L136.66.25h9.47l4.54,24.77h-6.52l-.58-4.21h-4.5l-.58,4.21h-6.37ZM139.86,15.66h2.92l-1.33-9.68h-.25l-1.33,9.68Z"/>
      <path class="cls-2" d="M152.14,25.02V.25h6.48v19.26h5.47v5.51h-11.95Z"/>
    </g>
    <g>
      <path class="cls-1" d="M11.94,51.43c-1.37,0-2.54-.11-3.51-.34-.97-.23-1.78-.62-2.41-1.17s-1.14-1.31-1.51-2.27c-.37-.96-.63-2.17-.77-3.64-.14-1.46-.22-3.21-.22-5.25s.08-3.83.23-5.29c.16-1.46.43-2.68.81-3.64.38-.96.91-1.71,1.58-2.25s1.52-.92,2.54-1.15c1.02-.23,2.25-.34,3.69-.34.62,0,1.32.04,2.09.11s1.54.16,2.3.27c.77.11,1.46.23,2.09.38v4.93c-.77-.1-1.45-.17-2.05-.22-.6-.05-1.12-.08-1.55-.11-.43-.02-.79-.04-1.08-.04-.79,0-1.45.02-1.96.07-.52.05-.93.18-1.24.4-.31.22-.55.58-.7,1.1-.16.52-.26,1.24-.31,2.18-.05.94-.07,2.14-.07,3.6s.02,2.74.07,3.69c.05.95.12,1.69.22,2.21.1.53.23.91.41,1.13.18.23.4.37.67.41.26.05.58.07.94.07.12,0,.24,0,.36-.02.12-.01.23-.02.34-.04.11-.01.21-.02.31-.02v-4.86h-1.55v-5.08h7.27v14.36c-.6.17-1.3.31-2.11.41-.8.11-1.63.2-2.47.27-.84.07-1.64.11-2.41.11Z"/>
      <path class="cls-1" d="M20.26,51.15l4.54-24.77h9.47l4.54,24.77h-6.52l-.58-4.21h-4.5l-.58,4.21h-6.37ZM28,41.79h2.92l-1.33-9.68h-.25l-1.33,9.68Z"/>
      <path class="cls-1" d="M42.29,51.15v-19.26h-4.28v-5.51h15.08v5.51h-4.28v19.26h-6.52Z"/>
      <path class="cls-1" d="M54.78,51.15v-24.77h6.48v9.43h2.88v-9.43h6.48v24.77h-6.48v-9.58h-2.88v9.58h-6.48Z"/>
      <path class="cls-1" d="M73.5,51.15v-24.77h12.71v5.33h-6.23v4.28h5.29v5.29h-5.29v4.54h6.23v5.33h-12.71Z"/>
      <path class="cls-1" d="M88.83,51.15v-24.77h9.11c1.44,0,2.6.18,3.47.54.88.36,1.53.9,1.96,1.62.43.72.72,1.59.86,2.61.14,1.02.22,2.2.22,3.54,0,1.08-.05,2.08-.14,2.99-.1.91-.3,1.72-.61,2.41-.31.7-.78,1.28-1.4,1.76l2.74,9.29h-6.66l-2.12-8.86.72.61c-.1.05-.21.08-.34.09-.13.01-.35.02-.67.02h-.65v8.14h-6.48ZM95.31,37.9h.97c.41,0,.73-.04.95-.13.23-.08.39-.23.49-.45.1-.22.16-.53.18-.95.02-.42.04-.95.04-1.6,0-.7-.01-1.25-.04-1.66-.02-.41-.08-.71-.18-.92-.1-.2-.26-.34-.49-.41-.23-.07-.55-.11-.95-.11h-.97v6.23Z"/>
      <path class="cls-1" d="M106.87,51.15v-24.77h6.48v24.77h-6.48Z"/>
      <path class="cls-1" d="M116.23,51.15v-24.77h6.23l3.46,9.61h.22v-9.61h6.16v24.77h-5.72l-4-11.16h-.18v11.16h-6.16Z"/>
      <path class="cls-1" d="M143.22,51.43c-1.37,0-2.54-.11-3.51-.34-.97-.23-1.78-.62-2.41-1.17s-1.14-1.31-1.51-2.27c-.37-.96-.63-2.17-.77-3.64-.14-1.46-.22-3.21-.22-5.25s.08-3.83.23-5.29c.16-1.46.43-2.68.81-3.64.38-.96.91-1.71,1.58-2.25s1.52-.92,2.54-1.15c1.02-.23,2.25-.34,3.69-.34.62,0,1.32.04,2.09.11s1.54.16,2.3.27c.77.11,1.46.23,2.09.38v4.93c-.77-.1-1.45-.17-2.05-.22-.6-.05-1.12-.08-1.55-.11-.43-.02-.79-.04-1.08-.04-.79,0-1.45.02-1.96.07-.52.05-.93.18-1.24.4-.31.22-.55.58-.7,1.1-.16.52-.26,1.24-.31,2.18-.05.94-.07,2.14-.07,3.6s.02,2.74.07,3.69c.05.95.12,1.69.22,2.21.1.53.23.91.41,1.13.18.23.4.37.67.41.26.05.58.07.94.07.12,0,.24,0,.36-.02.12-.01.23-.02.34-.04.11-.01.21-.02.31-.02v-4.86h-1.55v-5.08h7.27v14.36c-.6.17-1.3.31-2.11.41-.8.11-1.63.2-2.47.27-.84.07-1.64.11-2.41.11Z"/>
      <path class="cls-1" d="M159.1,51.15v-3.31c0-1.51.02-2.8.05-3.87.04-1.07.13-1.97.29-2.7.16-.73.41-1.34.77-1.84s.88-.91,1.55-1.24l3.67-1.87c.38-.19.7-.38.94-.56.24-.18.41-.43.52-.76.11-.32.16-.79.16-1.39,0-.67-.05-1.16-.16-1.48-.11-.31-.34-.51-.7-.59s-.92-.13-1.69-.13c-.41,0-.87.01-1.39.04-.52.02-1.08.05-1.69.09-.61.04-1.28.09-2,.16v-4.93c.58-.14,1.25-.26,2.02-.36.77-.1,1.57-.17,2.39-.23.83-.06,1.6-.09,2.32-.09,1.39,0,2.56.13,3.51.4.95.26,1.7.68,2.27,1.24.56.56.97,1.31,1.22,2.23s.38,2.03.38,3.33c0,1.46-.11,2.65-.34,3.56-.23.91-.57,1.63-1.03,2.16-.46.53-1.01.96-1.66,1.3l-3.92,1.94c-.29.14-.52.29-.68.43-.17.14-.28.34-.34.59-.06.25-.09.64-.09,1.17v1.33h8.06v5.36h-14.43Z"/>
      <path class="cls-1" d="M183.36,51.43c-1.51,0-2.75-.14-3.71-.41s-1.71-.71-2.25-1.31-.93-1.39-1.17-2.38c-.24-.98-.38-2.18-.43-3.6-.05-1.42-.07-3.07-.07-4.97s.02-3.55.07-4.97c.05-1.42.19-2.62.43-3.6.24-.98.63-1.78,1.17-2.38s1.29-1.04,2.25-1.31c.96-.28,2.2-.41,3.71-.41s2.74.14,3.69.41c.95.28,1.69.71,2.23,1.31s.93,1.39,1.17,2.38c.24.98.38,2.18.43,3.6.05,1.42.07,3.07.07,4.97s-.02,3.55-.07,4.97c-.05,1.42-.19,2.62-.43,3.6-.24.98-.63,1.78-1.17,2.38s-1.28,1.04-2.23,1.31c-.95.28-2.18.41-3.69.41ZM183.36,46.11c.24,0,.44-.03.59-.09.16-.06.28-.21.36-.45.08-.24.14-.62.18-1.13.04-.52.06-1.24.07-2.16.01-.92.02-2.09.02-3.51s0-2.58-.02-3.49c-.01-.91-.04-1.63-.07-2.16-.04-.53-.1-.91-.18-1.15-.08-.24-.2-.39-.36-.45-.16-.06-.35-.09-.59-.09s-.44.03-.61.09c-.17.06-.29.21-.38.45-.08.24-.14.62-.18,1.15-.04.53-.06,1.25-.07,2.16-.01.91-.02,2.08-.02,3.49s0,2.59.02,3.51.04,1.64.07,2.16c.04.52.1.89.18,1.13.08.24.21.39.38.45.17.06.37.09.61.09Z"/>
      <path class="cls-1" d="M193.11,51.15v-3.31c0-1.51.02-2.8.05-3.87.04-1.07.13-1.97.29-2.7.16-.73.41-1.34.77-1.84s.88-.91,1.55-1.24l3.67-1.87c.38-.19.7-.38.94-.56.24-.18.41-.43.52-.76.11-.32.16-.79.16-1.39,0-.67-.05-1.16-.16-1.48-.11-.31-.34-.51-.7-.59s-.92-.13-1.69-.13c-.41,0-.87.01-1.39.04-.52.02-1.08.05-1.69.09-.61.04-1.28.09-2,.16v-4.93c.58-.14,1.25-.26,2.02-.36.77-.1,1.57-.17,2.39-.23.83-.06,1.6-.09,2.32-.09,1.39,0,2.56.13,3.51.4.95.26,1.7.68,2.27,1.24.56.56.97,1.31,1.22,2.23s.38,2.03.38,3.33c0,1.46-.11,2.65-.34,3.56-.23.91-.57,1.63-1.03,2.16-.46.53-1.01.96-1.66,1.3l-3.92,1.94c-.29.14-.52.29-.68.43-.17.14-.28.34-.34.59-.06.25-.09.64-.09,1.17v1.33h8.06v5.36h-14.43Z"/>
      <path class="cls-1" d="M216.76,51.43c-.62,0-1.33-.03-2.11-.09-.78-.06-1.55-.14-2.32-.25-.77-.11-1.48-.22-2.12-.34v-4.9c.67.05,1.3.1,1.87.14.58.05,1.12.08,1.62.09.5.01.96.02,1.37.02.7,0,1.24-.02,1.64-.07s.69-.16.88-.34c.19-.18.32-.46.38-.85.06-.38.09-.91.09-1.58s-.03-1.2-.09-1.58c-.06-.38-.19-.67-.38-.85-.19-.18-.48-.3-.86-.36-.38-.06-.91-.09-1.58-.09-.53,0-1.06,0-1.58.02-.53.01-1.06.04-1.58.07s-1.06.09-1.58.16v-14.26h13.1v5.36h-7.34v3.53c.24-.05.49-.08.76-.11.26-.02.54-.04.83-.05.29-.01.59-.02.9-.02,1.1,0,2.03.16,2.79.47.76.31,1.36.79,1.82,1.42.46.64.79,1.43.99,2.39.2.96.31,2.09.31,3.38,0,1.61-.12,2.96-.36,4.07-.24,1.1-.65,1.99-1.22,2.66-.58.67-1.37,1.17-2.38,1.48s-2.28.47-3.82.47Z"/>
      <path class="cls-2" d="M8.67,51.43c-1.37,0-2.54-.11-3.51-.34-.97-.23-1.78-.62-2.41-1.17s-1.14-1.31-1.51-2.27c-.37-.96-.63-2.17-.77-3.64-.14-1.46-.22-3.21-.22-5.25s.08-3.83.23-5.29c.16-1.46.43-2.68.81-3.64.38-.96.91-1.71,1.58-2.25s1.52-.92,2.54-1.15c1.02-.23,2.25-.34,3.69-.34.62,0,1.32.04,2.09.11s1.54.16,2.3.27c.77.11,1.46.23,2.09.38v4.93c-.77-.1-1.45-.17-2.05-.22-.6-.05-1.12-.08-1.55-.11-.43-.02-.79-.04-1.08-.04-.79,0-1.45.02-1.96.07-.52.05-.93.18-1.24.4-.31.22-.55.58-.7,1.1-.16.52-.26,1.24-.31,2.18-.05.94-.07,2.14-.07,3.6s.02,2.74.07,3.69c.05.95.12,1.69.22,2.21.1.53.23.91.41,1.13.18.23.4.37.67.41.26.05.58.07.94.07.12,0,.24,0,.36-.02.12-.01.23-.02.34-.04.11-.01.21-.02.31-.02v-4.86h-1.55v-5.08h7.27v14.36c-.6.17-1.3.31-2.11.41-.8.11-1.63.2-2.47.27-.84.07-1.64.11-2.41.11Z"/>
      <path class="cls-2" d="M16.99,51.15l4.54-24.77h9.47l4.54,24.77h-6.52l-.58-4.21h-4.5l-.58,4.21h-6.37ZM24.73,41.79h2.92l-1.33-9.68h-.25l-1.33,9.68Z"/>
      <path class="cls-2" d="M39.02,51.15v-19.26h-4.28v-5.51h15.08v5.51h-4.28v19.26h-6.52Z"/>
      <path class="cls-2" d="M51.51,51.15v-24.77h6.48v9.43h2.88v-9.43h6.48v24.77h-6.48v-9.58h-2.88v9.58h-6.48Z"/>
      <path class="cls-2" d="M70.23,51.15v-24.77h12.71v5.33h-6.23v4.28h5.29v5.29h-5.29v4.54h6.23v5.33h-12.71Z"/>
      <path class="cls-2" d="M93.36,42.99c-.13.01-.35.02-.67.02h-.65v8.14h-6.48v-24.77h9.11c1.44,0,2.6.18,3.47.54.88.36,1.53.9,1.96,1.62.43.72.72,1.59.86,2.61.14,1.02.22,2.2.22,3.54,0,1.08-.05,2.08-.14,2.99-.1.91-.3,1.72-.61,2.41-.31.7-.78,1.28-1.4,1.76l2.74,9.29h-6.66l-1.75-8.15M92.04,37.9h.97c.41,0,.73-.04.95-.13.23-.08.39-.23.49-.45.1-.22.16-.53.18-.95.02-.42.04-.95.04-1.6,0-.7-.01-1.25-.04-1.66-.02-.41-.08-.71-.18-.92-.1-.2-.26-.34-.49-.41-.23-.07-.55-.11-.95-.11h-.97v6.23Z"/>
      <path class="cls-2" d="M103.6,51.15v-24.77h6.48v24.77h-6.48Z"/>
      <path class="cls-2" d="M112.96,51.15v-24.77h6.23l3.46,9.61h.22v-9.61h6.16v24.77h-5.72l-4-11.16h-.18v11.16h-6.16Z"/>
      <path class="cls-2" d="M139.95,51.43c-1.37,0-2.54-.11-3.51-.34-.97-.23-1.78-.62-2.41-1.17s-1.14-1.31-1.51-2.27c-.37-.96-.63-2.17-.77-3.64-.14-1.46-.22-3.21-.22-5.25s.08-3.83.23-5.29c.16-1.46.43-2.68.81-3.64.38-.96.91-1.71,1.58-2.25s1.52-.92,2.54-1.15c1.02-.23,2.25-.34,3.69-.34.62,0,1.32.04,2.09.11s1.54.16,2.3.27c.77.11,1.46.23,2.09.38v4.93c-.77-.1-1.45-.17-2.05-.22-.6-.05-1.12-.08-1.55-.11-.43-.02-.79-.04-1.08-.04-.79,0-1.45.02-1.96.07-.52.05-.93.18-1.24.4-.31.22-.55.58-.7,1.1-.16.52-.26,1.24-.31,2.18-.05.94-.07,2.14-.07,3.6s.02,2.74.07,3.69c.05.95.12,1.69.22,2.21.1.53.23.91.41,1.13.18.23.4.37.67.41.26.05.58.07.94.07.12,0,.24,0,.36-.02.12-.01.23-.02.34-.04.11-.01.21-.02.31-.02v-4.86h-1.55v-5.08h7.27v14.36c-.6.17-1.3.31-2.11.41-.8.11-1.63.2-2.47.27-.84.07-1.64.11-2.41.11Z"/>
      <path class="cls-2" d="M155.83,51.15v-3.31c0-1.51.02-2.8.05-3.87.04-1.07.13-1.97.29-2.7.16-.73.41-1.34.77-1.84s.88-.91,1.55-1.24l3.67-1.87c.38-.19.7-.38.94-.56.24-.18.41-.43.52-.76.11-.32.16-.79.16-1.39,0-.67-.05-1.16-.16-1.48-.11-.31-.34-.51-.7-.59s-.92-.13-1.69-.13c-.41,0-.87.01-1.39.04-.52.02-1.08.05-1.69.09-.61.04-1.28.09-2,.16v-4.93c.58-.14,1.25-.26,2.02-.36.77-.1,1.57-.17,2.39-.23.83-.06,1.6-.09,2.32-.09,1.39,0,2.56.13,3.51.4.95.26,1.7.68,2.27,1.24.56.56.97,1.31,1.22,2.23s.38,2.03.38,3.33c0,1.46-.11,2.65-.34,3.56-.23.91-.57,1.63-1.03,2.16-.46.53-1.01.96-1.66,1.3l-3.92,1.94c-.29.14-.52.29-.68.43-.17.14-.28.34-.34.59-.06.25-.09.64-.09,1.17v1.33h8.06v5.36h-14.43Z"/>
      <path class="cls-2" d="M180.09,51.43c-1.51,0-2.75-.14-3.71-.41s-1.71-.71-2.25-1.31-.93-1.39-1.17-2.38c-.24-.98-.38-2.18-.43-3.6-.05-1.42-.07-3.07-.07-4.97s.02-3.55.07-4.97c.05-1.42.19-2.62.43-3.6.24-.98.63-1.78,1.17-2.38s1.29-1.04,2.25-1.31c.96-.28,2.2-.41,3.71-.41s2.74.14,3.69.41c.95.28,1.69.71,2.23,1.31s.93,1.39,1.17,2.38c.24.98.38,2.18.43,3.6.05,1.42.07,3.07.07,4.97s-.02,3.55-.07,4.97c-.05,1.42-.19,2.62-.43,3.6-.24.98-.63,1.78-1.17,2.38s-1.28,1.04-2.23,1.31c-.95.28-2.18.41-3.69.41ZM180.09,46.11c.24,0,.44-.03.59-.09.16-.06.28-.21.36-.45.08-.24.14-.62.18-1.13.04-.52.06-1.24.07-2.16.01-.92.02-2.09.02-3.51s0-2.58-.02-3.49c-.01-.91-.04-1.63-.07-2.16-.04-.53-.1-.91-.18-1.15-.08-.24-.2-.39-.36-.45-.16-.06-.35-.09-.59-.09s-.44.03-.61.09c-.17.06-.29.21-.38.45-.08.24-.14.62-.18,1.15-.04.53-.06,1.25-.07,2.16-.01.91-.02,2.08-.02,3.49s0,2.59.02,3.51.04,1.64.07,2.16c.04.52.1.89.18,1.13.08.24.21.39.38.45.17.06.37.09.61.09Z"/>
      <path class="cls-2" d="M189.84,51.15v-3.31c0-1.51.02-2.8.05-3.87.04-1.07.13-1.97.29-2.7.16-.73.41-1.34.77-1.84s.88-.91,1.55-1.24l3.67-1.87c.38-.19.7-.38.94-.56.24-.18.41-.43.52-.76.11-.32.16-.79.16-1.39,0-.67-.05-1.16-.16-1.48-.11-.31-.34-.51-.7-.59s-.92-.13-1.69-.13c-.41,0-.87.01-1.39.04-.52.02-1.08.05-1.69.09-.61.04-1.28.09-2,.16v-4.93c.58-.14,1.25-.26,2.02-.36.77-.1,1.57-.17,2.39-.23.83-.06,1.6-.09,2.32-.09,1.39,0,2.56.13,3.51.4.95.26,1.7.68,2.27,1.24.56.56.97,1.31,1.22,2.23s.38,2.03.38,3.33c0,1.46-.11,2.65-.34,3.56-.23.91-.57,1.63-1.03,2.16-.46.53-1.01.96-1.66,1.3l-3.92,1.94c-.29.14-.52.29-.68.43-.17.14-.28.34-.34.59-.06.25-.09.64-.09,1.17v1.33h8.06v5.36h-14.43Z"/>
      <path class="cls-2" d="M213.49,51.43c-.62,0-1.33-.03-2.11-.09-.78-.06-1.55-.14-2.32-.25-.77-.11-1.48-.22-2.12-.34v-4.9c.67.05,1.3.1,1.87.14.58.05,1.12.08,1.62.09.5.01.96.02,1.37.02.7,0,1.24-.02,1.64-.07s.69-.16.88-.34c.19-.18.32-.46.38-.85.06-.38.09-.91.09-1.58s-.03-1.2-.09-1.58c-.06-.38-.19-.67-.38-.85-.19-.18-.48-.3-.86-.36-.38-.06-.91-.09-1.58-.09-.53,0-1.06,0-1.58.02-.53.01-1.06.04-1.58.07s-1.06.09-1.58.16v-14.26h13.1v5.36h-7.34v3.53c.24-.05.49-.08.76-.11.26-.02.54-.04.83-.05.29-.01.59-.02.9-.02,1.1,0,2.03.16,2.79.47.76.31,1.36.79,1.82,1.42.46.64.79,1.43.99,2.39.2.96.31,2.09.31,3.38,0,1.61-.12,2.96-.36,4.07-.24,1.1-.65,1.99-1.22,2.66-.58.67-1.37,1.17-2.38,1.48s-2.28.47-3.82.47Z"/>
    </g>
  </g>
</svg>