<?xml version="1.0" encoding="UTF-8"?>
<svg id="Layer_2" data-name="Layer 2" xmlns="http://www.w3.org/2000/svg" viewBox="0 0 369.12 62.14">
  <defs>
    <style>
      .cls-1 {
        fill: #4197cb;
      }

      .cls-2 {
        fill: #ff671d;
      }

      .cls-3 {
        fill: #fff;
      }

      .cls-4 {
        fill: #0087ce;
      }
    </style>
  </defs>
  <g id="Layer_1-2" data-name="Layer 1">
    <g>
      <g>
        <g id="Layer_1-3" data-name="Layer 1">
          <g>
            <path d="M293.5,14.13c5.99,1.27,10.21,6.24,9.77,11.83-.37,4.71-4.09,8.8-9.21,10.02-1.32.31-2.71.49-4.07.49-3.44,0-6.93.18-10.32-.28-4.77-.64-8.47-3.15-10.03-7.91-2.05-6.23,1.71-12.19,8.55-13.84.8-.19,1.61-.39,2.43-.42,1.88-.06,10.84-.3,12.88.11ZM291.54,30.35c3.14-.49,4.98-2.86,4.67-5.73-.23-2.2-2.15-4.32-4.75-4.51-3.5-.26-7.04-.18-10.56,0-1.68.08-3.08,1.12-4,2.61-1.92,3.12,0,6.93,3.96,7.63,1.72.31,8.9.28,10.67,0Z"/>
            <path d="M334.65,13.91v1.3c0,5.91,0,11.82,0,17.73,0,.54-.05,1.1-.17,1.63-.28,1.25-1.04,1.84-2.31,1.93-1.71.12-3.12-.54-4.41-1.61-4.21-3.51-8.4-7.19-12.84-10.87v12.53h-7.27c0-2.02.11-13.12.03-18.99-.02-1.21.3-2.3.89-2.88.74-.73,1.92-.94,3.44-.59.98.23,1.94.86,2.74,1.51,3.95,3.21,7.85,6.49,11.77,9.75.27.22.55.42,1.01.77v-12.19h7.14Z"/>
            <path d="M214.14,28.03c0,.99-.01,1.61-.01,2.54h17.7c-1.01,1.33-4.61,6.06-4.61,5.98-6.14,0-14.56-.06-20.34-.06V14.02h24.84c-1.48,1.93-4.5,5.74-4.5,5.79s-12.6.01-13.09.01v2.08h16.36c-.52.69-4.5,6.14-4.5,6.14,0,0-9.7-.01-11.85-.01Z"/>
            <path d="M340.22,19.82c2.98-3.49,5-5.91,5-5.91,4.55.05,9.03-.14,13.53.35,4.61.5,8.33,2.86,9.84,7.57,1.83,5.69-1.27,11.55-7.23,13.65-1.71.6-3.58.93-5.39.97-5.02.13-15.37.11-15.6.09v-14.1h6.99v7.95c3.42,0,6.71.19,9.97-.06,2.5-.19,4.33-2.12,4.65-4.18.35-2.29-.64-4.34-2.86-5.39-1.03-.49-2.23-.83-3.37-.86-4.67-.11-9.33-.07-14-.08-.42,0-.84,0-1.53,0Z"/>
            <path d="M268.57,13.94c-2.91,3.24-5.62,6.26-8.33,9.28-1.52,1.69-3.32,3.92-4.79,5.64v7.77h-6.96v-7.77c-4.05-4.3-9.32-9.56-13.33-13.89-.25-.27-.49-.57-.88-1.03,2.67-.03,6.88.03,9.04.03.22,0,5.69,6.15,8.36,9.04,1.62-1.87,8.03-9.04,8.35-9.04,2.74-.04,5.48-.02,8.53-.02Z"/>
            <path d="M194.5,24.01c1.21-2.42,2.02-4.62,2.42-6.06.98-4.6-2.58-7.12-7.27-7.68-4.68-.56-12.53,3.23-14.55,4.44,4.44-7.68,8.08-14.55,8.08-14.55,3.64-.4,9.81-.23,13.74,2.02,2.68,1.53,5.66,4.51,6.06,7.68,1.1,8.6-8.33,14.09-8.49,14.14Z"/>
            <path d="M178.16,30.5c3.41-.02,5.84.96,6.19,3.58.26,1.94-.32,3.71-1.38,5.33-1.21,1.84-2.85,3.2-4.81,4.2-8.71,4.66-20.54,6.31-20.83,6.27,1.3-1.39,2.73-2.74,3.95-4.04,2.69-2.84,6.23-6.51,8.98-9.3,0,0,4.85-.81,7.27-2.02,2.21-1.1,2.51-2.22.63-4.02Z"/>
            <path d="M171.64,12.85c.62.78.72,1.85.39,2.79-.1.27-.2.53-.33.77-3.54,6.43-7.09,12.86-10.71,19.25-.41.72-1.17,1.47-1.93,1.71-1.71.55-3.24-.88-3.01-2.67.08-.6.32-1.21.61-1.75,3.53-6.4,7.07-12.78,10.63-19.16,1.1-1.97,2.86-2.44,4.19-1.11.05.05.11.11.15.17Z"/>
            <g>
              <path d="M186.5,17.01c-1.54.62-3.2.95-4.81,1.4.62.17,2.48.55,3.11.76,3.4,1.12,4.8,2.42,6.61,4.21,1.53-1.59,2.6-3.41,2.78-5.67.13-1.61-.23-3.06-1.67-4.01-1.46-.97-3.09-1.16-4.86-.98,2.4,2.01,1.61,3.19-1.16,4.31Z"/>
              <path d="M173.08,18.76c-1.62,3.23-4.1,7.96-5.84,11.24-.47.88-1.25,2.19-1.84,3.3.67-.39,1.98-.97,2.42-1.21,4.29-2.33,8.37-3.28,13.33-2.42,3.37.58,6.47,2.02,5.66,7.27-.23,1.52-.81,3.23-2.02,5.25.59-.42,2.34-1.6,2.83-2.02,2.83-2.42,4.3-4.36,4.85-7.68.4-2.42.4-4.85-.81-6.87-4.04-7.27-18.41-7.23-18.59-6.87Z"/>
            </g>
            <g>
              <path d="M214.8,45.99h-4.99v2.69h4.6c.34,0,.59.08.76.23.17.15.25.35.25.6s-.08.45-.25.61c-.16.16-.42.24-.76.24h-4.6v3.11h5.16c.35,0,.61.08.79.24.18.16.26.38.26.65s-.09.47-.26.63c-.18.16-.44.24-.79.24h-6.02c-.48,0-.83-.11-1.04-.32-.21-.21-.32-.56-.32-1.04v-8.22c0-.32.05-.58.14-.78.09-.2.24-.35.44-.44.2-.09.46-.14.77-.14h5.85c.35,0,.62.08.79.24s.26.36.26.62-.09.47-.26.62-.43.24-.79.24Z"/>
              <path d="M219.49,48.25v.25c.36-.47.75-.82,1.18-1.04.43-.22.91-.33,1.47-.33s1.02.12,1.44.35c.42.23.74.56.95.99.13.25.22.52.26.81.04.29.06.66.06,1.1v3.79c0,.41-.09.72-.28.93-.19.21-.43.31-.73.31s-.55-.11-.74-.32-.28-.52-.28-.92v-3.4c0-.67-.09-1.19-.28-1.54-.19-.36-.56-.53-1.12-.53-.36,0-.69.11-.99.32-.3.22-.52.51-.66.89-.1.3-.15.87-.15,1.7v2.55c0,.41-.1.72-.29.93-.19.21-.44.31-.74.31s-.53-.11-.72-.32-.28-.52-.28-.92v-5.89c0-.39.08-.68.25-.87.17-.19.4-.29.69-.29.18,0,.34.04.49.13.14.08.26.21.35.38.09.17.13.38.13.62Z"/>
              <path d="M234.37,48.62v5.92c0,.68-.07,1.26-.22,1.75-.14.49-.38.89-.69,1.21-.32.32-.74.55-1.25.71-.51.15-1.16.23-1.92.23-.7,0-1.33-.1-1.88-.29-.55-.2-.98-.45-1.28-.76-.3-.31-.45-.63-.45-.96,0-.25.08-.45.25-.61s.37-.24.61-.24c.3,0,.56.13.78.4.11.13.22.27.34.41.12.14.25.25.39.35.14.1.31.17.51.22.2.05.43.07.69.07.53,0,.94-.07,1.23-.22.29-.15.49-.35.61-.62.12-.26.19-.55.21-.85s.03-.78.04-1.45c-.31.44-.68.77-1.09,1-.41.23-.9.34-1.47.34-.68,0-1.28-.17-1.79-.52-.51-.35-.9-.84-1.18-1.46-.27-.63-.41-1.35-.41-2.17,0-.61.08-1.16.25-1.66.17-.49.4-.91.71-1.25.31-.34.66-.59,1.07-.76.4-.17.85-.26,1.33-.26.58,0,1.08.11,1.5.33.42.22.82.57,1.18,1.04v-.28c0-.35.09-.63.26-.82.17-.19.4-.29.67-.29.39,0,.65.13.78.38.13.26.19.63.19,1.11ZM228.46,51.2c0,.83.18,1.45.54,1.87.36.42.83.63,1.4.63.34,0,.66-.09.96-.27.3-.18.55-.46.74-.82.19-.37.28-.81.28-1.33,0-.83-.18-1.48-.55-1.94-.37-.46-.85-.69-1.44-.69s-1.05.22-1.4.66c-.35.44-.53,1.07-.53,1.89Z"/>
              <path d="M237.45,46.18c-.28,0-.53-.09-.73-.26-.2-.17-.3-.42-.3-.74,0-.29.1-.53.31-.71.21-.19.45-.28.72-.28s.5.08.7.25c.2.17.31.42.31.74s-.1.56-.3.74c-.2.18-.44.26-.71.26ZM238.46,48.28v5.89c0,.41-.1.72-.29.93-.19.21-.44.31-.74.31s-.54-.11-.73-.32c-.19-.21-.28-.52-.28-.92v-5.83c0-.4.09-.71.28-.91.19-.2.43-.31.73-.31s.54.1.74.31c.19.2.29.49.29.85Z"/>
              <path d="M242.42,48.25v.25c.36-.47.75-.82,1.18-1.04.43-.22.91-.33,1.47-.33s1.02.12,1.44.35c.42.23.74.56.95.99.13.25.22.52.26.81.04.29.06.66.06,1.1v3.79c0,.41-.09.72-.28.93-.19.21-.43.31-.73.31s-.55-.11-.74-.32-.28-.52-.28-.92v-3.4c0-.67-.09-1.19-.28-1.54-.19-.36-.56-.53-1.12-.53-.36,0-.69.11-.99.32-.3.22-.52.51-.66.89-.1.3-.15.87-.15,1.7v2.55c0,.41-.1.72-.29.93-.19.21-.44.31-.74.31s-.53-.11-.72-.32-.28-.52-.28-.92v-5.89c0-.39.08-.68.25-.87.17-.19.4-.29.69-.29.18,0,.34.04.49.13.14.08.26.21.35.38.09.17.13.38.13.62Z"/>
              <path d="M255.48,51.77h-3.98c0,.46.1.87.28,1.22.18.35.42.62.72.8.3.18.63.27,1,.27.24,0,.47-.03.67-.09.2-.06.4-.15.59-.27.19-.12.36-.25.52-.39.16-.14.37-.33.62-.57.1-.09.25-.13.45-.13.21,0,.38.06.51.17.13.11.19.28.19.49,0,.18-.07.4-.22.65-.14.25-.36.48-.65.71-.29.23-.66.41-1.1.56s-.95.22-1.52.22c-1.31,0-2.33-.37-3.05-1.12-.73-.75-1.09-1.76-1.09-3.04,0-.6.09-1.16.27-1.68.18-.51.44-.96.78-1.32.34-.37.77-.65,1.27-.85.5-.2,1.06-.29,1.67-.29.8,0,1.48.17,2.05.5.57.34,1,.77,1.28,1.3.28.53.43,1.07.43,1.63,0,.51-.15.84-.44,1-.29.15-.71.23-1.24.23ZM251.5,50.61h3.69c-.05-.7-.24-1.22-.56-1.56-.33-.35-.75-.52-1.29-.52s-.92.18-1.25.53c-.33.35-.52.87-.59,1.56Z"/>
              <path d="M264.57,51.77h-3.98c0,.46.1.87.28,1.22.18.35.42.62.72.8.3.18.63.27,1,.27.24,0,.47-.03.67-.09.2-.06.4-.15.59-.27.19-.12.36-.25.52-.39.16-.14.37-.33.62-.57.1-.09.25-.13.45-.13.21,0,.38.06.51.17.13.11.19.28.19.49,0,.18-.07.4-.22.65-.14.25-.36.48-.65.71-.29.23-.66.41-1.1.56s-.95.22-1.52.22c-1.31,0-2.33-.37-3.05-1.12-.73-.75-1.09-1.76-1.09-3.04,0-.6.09-1.16.27-1.68.18-.51.44-.96.78-1.32.34-.37.77-.65,1.27-.85.5-.2,1.06-.29,1.67-.29.8,0,1.48.17,2.05.5.57.34,1,.77,1.28,1.3.28.53.43,1.07.43,1.63,0,.51-.15.84-.44,1-.29.15-.71.23-1.24.23ZM260.58,50.61h3.69c-.05-.7-.24-1.22-.56-1.56-.33-.35-.75-.52-1.29-.52s-.92.18-1.25.53c-.33.35-.52.87-.59,1.56Z"/>
              <path d="M269.98,52.47v1.7c0,.41-.1.72-.29.93s-.44.31-.74.31-.53-.1-.72-.31c-.19-.21-.28-.52-.28-.93v-5.67c0-.92.33-1.37.99-1.37.34,0,.58.11.73.32.15.21.23.53.25.95.24-.42.49-.73.75-.95.26-.21.6-.32,1.03-.32s.84.11,1.25.32c.4.21.6.5.6.85,0,.25-.09.45-.26.62-.17.16-.36.24-.56.24-.07,0-.25-.05-.54-.14-.29-.09-.54-.14-.76-.14-.3,0-.54.08-.73.24-.19.16-.34.39-.44.7-.1.31-.18.68-.22,1.1s-.06.94-.06,1.56Z"/>
              <path d="M275.68,46.18c-.28,0-.53-.09-.73-.26-.2-.17-.3-.42-.3-.74,0-.29.1-.53.31-.71.21-.19.45-.28.72-.28s.5.08.7.25c.2.17.31.42.31.74s-.1.56-.3.74c-.2.18-.44.26-.71.26ZM276.69,48.28v5.89c0,.41-.1.72-.29.93-.19.21-.44.31-.74.31s-.54-.11-.73-.32c-.19-.21-.28-.52-.28-.92v-5.83c0-.4.09-.71.28-.91.19-.2.43-.31.73-.31s.54.1.74.31c.19.2.29.49.29.85Z"/>
              <path d="M280.65,48.25v.25c.36-.47.75-.82,1.18-1.04.43-.22.91-.33,1.47-.33s1.02.12,1.44.35c.42.23.74.56.95.99.13.25.22.52.26.81.04.29.06.66.06,1.1v3.79c0,.41-.09.72-.28.93-.19.21-.43.31-.73.31s-.55-.11-.74-.32-.28-.52-.28-.92v-3.4c0-.67-.09-1.19-.28-1.54-.19-.36-.56-.53-1.12-.53-.36,0-.69.11-.99.32-.3.22-.52.51-.66.89-.1.3-.15.87-.15,1.7v2.55c0,.41-.1.72-.29.93-.19.21-.44.31-.74.31s-.53-.11-.72-.32-.28-.52-.28-.92v-5.89c0-.39.08-.68.25-.87.17-.19.4-.29.69-.29.18,0,.34.04.49.13.14.08.26.21.35.38.09.17.13.38.13.62Z"/>
              <path d="M295.52,48.62v5.92c0,.68-.07,1.26-.22,1.75-.14.49-.38.89-.69,1.21-.32.32-.74.55-1.25.71-.51.15-1.16.23-1.92.23-.7,0-1.33-.1-1.88-.29-.55-.2-.98-.45-1.28-.76-.3-.31-.45-.63-.45-.96,0-.25.08-.45.25-.61s.37-.24.61-.24c.3,0,.56.13.78.4.11.13.22.27.34.41.12.14.25.25.39.35.14.1.31.17.51.22.2.05.43.07.69.07.53,0,.94-.07,1.23-.22.29-.15.49-.35.61-.62.12-.26.19-.55.21-.85s.03-.78.04-1.45c-.31.44-.68.77-1.09,1-.41.23-.9.34-1.47.34-.68,0-1.28-.17-1.79-.52-.51-.35-.9-.84-1.18-1.46-.27-.63-.41-1.35-.41-2.17,0-.61.08-1.16.25-1.66.17-.49.4-.91.71-1.25.31-.34.66-.59,1.07-.76.4-.17.85-.26,1.33-.26.58,0,1.08.11,1.5.33.42.22.82.57,1.18,1.04v-.28c0-.35.09-.63.26-.82.17-.19.4-.29.67-.29.39,0,.65.13.78.38.13.26.19.63.19,1.11ZM289.62,51.2c0,.83.18,1.45.54,1.87.36.42.83.63,1.4.63.34,0,.66-.09.96-.27.3-.18.55-.46.74-.82.19-.37.28-.81.28-1.33,0-.83-.18-1.48-.55-1.94-.37-.46-.85-.69-1.44-.69s-1.05.22-1.4.66c-.35.44-.53,1.07-.53,1.89Z"/>
              <path d="M302.71,46.6c0-.46.12-.88.36-1.26.24-.38.6-.68,1.06-.91.47-.22,1.02-.34,1.65-.34s1.17.12,1.63.35c.46.23.8.54,1.03.92.23.38.34.77.34,1.18,0,.56-.18,1.04-.55,1.46-.37.41-.91.83-1.63,1.26.25.29.48.57.69.83.21.26.42.5.62.72.2.22.38.42.54.57.07-.14.19-.4.35-.78.16-.38.3-.66.44-.83.14-.17.33-.25.58-.25.23,0,.44.08.62.25.18.17.27.37.27.61,0,.22-.08.53-.23.93-.15.4-.38.84-.67,1.33.18.16.48.4.88.72.4.32.65.54.74.66.09.12.14.27.14.47,0,.26-.09.48-.28.65-.19.18-.39.26-.62.26s-.46-.07-.68-.22c-.22-.15-.68-.51-1.4-1.1-.32.3-.66.55-1,.75-.35.19-.72.34-1.11.43-.4.09-.84.14-1.32.14-.62,0-1.18-.09-1.68-.27-.5-.18-.91-.43-1.24-.74-.33-.31-.57-.65-.73-1.03-.16-.38-.24-.76-.24-1.15s.06-.72.18-1.03c.12-.31.29-.59.5-.84.22-.25.48-.49.8-.72.32-.23.68-.45,1.1-.66-.37-.47-.66-.88-.85-1.25-.19-.37-.29-.74-.29-1.13ZM304.83,50.18c-.51.29-.89.59-1.14.88-.25.29-.38.64-.38,1.04,0,.23.05.45.14.66.09.21.23.4.4.58.18.18.38.32.62.41.23.09.48.14.74.14s.5-.04.74-.12c.24-.08.47-.19.68-.34.21-.15.44-.33.66-.55-.44-.41-.84-.81-1.19-1.21-.35-.4-.78-.9-1.27-1.5ZM305.59,48.13c.51-.32.87-.6,1.1-.82.23-.22.34-.49.34-.8s-.11-.57-.34-.78c-.23-.21-.51-.31-.85-.31s-.63.11-.86.32c-.23.21-.35.47-.35.75,0,.15.04.31.13.48.09.17.2.34.32.51.13.17.3.38.51.64Z"/>
              <path d="M324.08,46.11h-2.42v7.95c0,.46-.1.8-.31,1.02s-.47.33-.79.33-.6-.11-.8-.34c-.21-.22-.31-.56-.31-1.01v-7.95h-2.42c-.38,0-.66-.08-.84-.25-.18-.17-.28-.39-.28-.66s.1-.51.29-.67.47-.25.83-.25h7.04c.38,0,.67.08.85.25.19.17.28.39.28.66s-.09.49-.28.66c-.19.17-.47.25-.85.25Z"/>
              <path d="M331.11,51.77h-3.98c0,.46.1.87.28,1.22.18.35.42.62.72.8.3.18.63.27,1,.27.24,0,.47-.03.67-.09.2-.06.4-.15.59-.27.19-.12.36-.25.52-.39.16-.14.37-.33.62-.57.1-.09.25-.13.45-.13.21,0,.38.06.51.17.13.11.19.28.19.49,0,.18-.07.4-.22.65-.14.25-.36.48-.65.71-.29.23-.66.41-1.1.56s-.95.22-1.52.22c-1.31,0-2.33-.37-3.05-1.12-.73-.75-1.09-1.76-1.09-3.04,0-.6.09-1.16.27-1.68.18-.51.44-.96.78-1.32.34-.37.77-.65,1.27-.85.5-.2,1.06-.29,1.67-.29.8,0,1.48.17,2.05.5.57.34,1,.77,1.28,1.3.28.53.43,1.07.43,1.63,0,.51-.15.84-.44,1-.29.15-.71.23-1.24.23ZM327.12,50.61h3.69c-.05-.7-.24-1.22-.56-1.56-.33-.35-.75-.52-1.29-.52s-.92.18-1.25.53c-.33.35-.52.87-.59,1.56Z"/>
              <path d="M341.06,52.74c0,.56-.14,1.04-.41,1.44-.27.4-.68.7-1.21.91s-1.19.31-1.95.31-1.36-.11-1.88-.34c-.52-.22-.91-.5-1.16-.84-.25-.34-.37-.67-.37-1.01,0-.22.08-.42.24-.57.16-.16.36-.24.6-.24.21,0,.38.05.49.16.11.1.22.25.33.44.21.36.46.63.75.81.29.18.69.27,1.19.27.41,0,.74-.09,1-.27.26-.18.39-.39.39-.62,0-.36-.14-.62-.41-.78-.27-.16-.72-.32-1.34-.47-.7-.17-1.27-.36-1.71-.55-.44-.19-.79-.44-1.06-.76s-.4-.7-.4-1.16c0-.41.12-.79.37-1.16.24-.36.6-.65,1.08-.87s1.05-.32,1.72-.32c.53,0,1,.05,1.42.16.42.11.77.26,1.05.44.28.18.49.39.64.61.15.22.22.44.22.66,0,.23-.08.43-.24.57s-.38.22-.67.22c-.21,0-.39-.06-.53-.18-.15-.12-.31-.3-.5-.54-.15-.2-.34-.36-.54-.48s-.49-.18-.85-.18-.67.08-.92.24c-.24.16-.37.35-.37.59,0,.21.09.39.27.53.18.14.42.25.72.34s.72.2,1.25.33c.63.15,1.15.34,1.55.55.4.21.7.47.91.76s.31.62.31,1Z"/>
              <path d="M342.9,47.3h.22v-1.22c0-.33,0-.59.03-.77.02-.19.07-.35.15-.48.08-.14.19-.25.34-.34.15-.09.32-.13.5-.13.26,0,.49.1.7.29.14.13.23.29.26.47.04.19.06.45.06.79v1.39h.75c.29,0,.51.07.66.21.15.14.23.31.23.53,0,.27-.11.47-.32.57-.22.11-.53.16-.93.16h-.38v3.75c0,.32.01.56.03.74.02.17.08.31.18.42.1.11.25.16.47.16.12,0,.28-.02.49-.06.2-.04.36-.06.48-.06.16,0,.31.07.44.2.13.13.2.29.2.49,0,.33-.18.58-.54.75-.36.17-.87.26-1.54.26-.64,0-1.12-.11-1.45-.32-.33-.21-.54-.51-.65-.89-.1-.38-.15-.88-.15-1.51v-3.91h-.27c-.29,0-.52-.07-.67-.21-.15-.14-.23-.32-.23-.53s.08-.39.24-.53c.16-.14.4-.21.71-.21Z"/>
              <path d="M349.23,46.18c-.28,0-.53-.09-.73-.26-.2-.17-.3-.42-.3-.74,0-.29.1-.53.31-.71.21-.19.45-.28.72-.28s.5.08.7.25c.2.17.31.42.31.74s-.1.56-.3.74c-.2.18-.44.26-.71.26ZM350.23,48.28v5.89c0,.41-.1.72-.29.93-.19.21-.44.31-.74.31s-.54-.11-.73-.32c-.19-.21-.28-.52-.28-.92v-5.83c0-.4.09-.71.28-.91.19-.2.43-.31.73-.31s.54.1.74.31c.19.2.29.49.29.85Z"/>
              <path d="M354.19,48.25v.25c.36-.47.75-.82,1.18-1.04.43-.22.91-.33,1.47-.33s1.02.12,1.44.35c.42.23.74.56.95.99.13.25.22.52.26.81.04.29.06.66.06,1.1v3.79c0,.41-.09.72-.28.93-.19.21-.43.31-.73.31s-.55-.11-.74-.32-.28-.52-.28-.92v-3.4c0-.67-.09-1.19-.28-1.54-.19-.36-.56-.53-1.12-.53-.36,0-.69.11-.99.32-.3.22-.52.51-.66.89-.1.3-.15.87-.15,1.7v2.55c0,.41-.1.72-.29.93-.19.21-.44.31-.74.31s-.53-.11-.72-.32-.28-.52-.28-.92v-5.89c0-.39.08-.68.25-.87.17-.19.4-.29.69-.29.18,0,.34.04.49.13.14.08.26.21.35.38.09.17.13.38.13.62Z"/>
              <path d="M369.06,48.62v5.92c0,.68-.07,1.26-.22,1.75-.14.49-.38.89-.69,1.21-.32.32-.74.55-1.25.71-.51.15-1.16.23-1.92.23-.7,0-1.33-.1-1.88-.29-.55-.2-.98-.45-1.28-.76-.3-.31-.45-.63-.45-.96,0-.25.08-.45.25-.61s.37-.24.61-.24c.3,0,.56.13.78.4.11.13.22.27.34.41.12.14.25.25.39.35.14.1.31.17.51.22.2.05.43.07.69.07.53,0,.94-.07,1.23-.22.29-.15.49-.35.61-.62.12-.26.19-.55.21-.85s.03-.78.04-1.45c-.31.44-.68.77-1.09,1-.41.23-.9.34-1.47.34-.68,0-1.28-.17-1.79-.52-.51-.35-.9-.84-1.18-1.46-.27-.63-.41-1.35-.41-2.17,0-.61.08-1.16.25-1.66.17-.49.4-.91.71-1.25.31-.34.66-.59,1.07-.76.4-.17.85-.26,1.33-.26.58,0,1.08.11,1.5.33.42.22.82.57,1.18,1.04v-.28c0-.35.09-.63.26-.82.17-.19.4-.29.67-.29.39,0,.65.13.78.38.13.26.19.63.19,1.11ZM363.16,51.2c0,.83.18,1.45.54,1.87.36.42.83.63,1.4.63.34,0,.66-.09.96-.27.3-.18.55-.46.74-.82.19-.37.28-.81.28-1.33,0-.83-.18-1.48-.55-1.94-.37-.46-.85-.69-1.44-.69s-1.05.22-1.4.66c-.35.44-.53,1.07-.53,1.89Z"/>
            </g>
          </g>
        </g>
        <g>
          <path d="M37.83,29.71c2.87,5.86,5.72,11.68,8.59,17.55-.19,0-5.83,0-8.3,0l-7.35-16.07c-1.88.01-4.56.02-6.44,0l.03,16.07c-2.18-.02-5.3-.02-7.48,0,0,0,0-26.54,0-39.42,0,0,10.98-.03,16.28.03,2.65.03,5.19.59,7.41,2.14,2.44,1.71,3.71,4.14,4.17,7.04.34,2.14.33,4.28-.34,6.36-.99,3.05-3.03,5.06-6.03,6.09-.17.06-.34.12-.54.19h0ZM24.33,19.57c0,1.71,0,3.85,0,5.56h.41c1.82-.02,3.64,0,5.46-.01,1.19-.01,2.38-.11,3.55-.41,1.94-.5,3.27-1.61,3.62-3.69.15-.89.17-1.79.02-2.68-.26-1.66-1.08-2.92-2.61-3.65-.88-.42-1.81-.65-2.77-.66-2.44-.03-7.68-.04-7.68-.04,0,1.74,0,3.84,0,5.58h0Z"/>
          <path d="M69.02,29.71c2.87,5.86,5.72,11.68,8.59,17.55-.19,0-5.83,0-8.3,0l-7.35-16.07c-1.88.01-4.56.02-6.44,0l.03,16.07c-2.18-.02-5.3-.02-7.48,0,0,0,0-26.54,0-39.42,0,0,10.98-.03,16.28.03,2.65.03,5.19.59,7.41,2.14,2.44,1.71,3.71,4.14,4.18,7.04.34,2.14.33,4.28-.34,6.36-.99,3.05-3.03,5.06-6.03,6.09-.17.06-.34.12-.54.19h0ZM55.52,19.57c0,1.71,0,3.85,0,5.56h.41c1.82-.02,3.64,0,5.46-.01,1.19-.01,2.38-.11,3.55-.41,1.94-.5,3.27-1.61,3.62-3.69.15-.89.16-1.79.02-2.68-.26-1.66-1.08-2.92-2.61-3.65-.88-.42-1.81-.65-2.77-.66-2.44-.03-7.68-.04-7.68-.04,0,1.74,0,3.84,0,5.58h0Z"/>
          <path d="M85.3,27.74c-.03,2.76.15,5.36.93,7.87.52,1.67,1.29,3.19,2.66,4.33,1.4,1.16,3.04,1.55,4.82,1.53,1.66-.02,3.19-.4,4.47-1.53,1.06-.94,1.8-2.12,2.47-3.36.17-.31.52-.94.52-.94,0,0,.65.18.98.27,1.85.5,4.05,1.08,5.9,1.58l-.08.27c-1.27,3.49-3.28,6.38-6.58,8.21-2.13,1.18-4.44,1.71-6.86,1.82-2.58.13-5.1-.18-7.49-1.23-3.26-1.44-5.5-3.92-6.99-7.12-1.15-2.47-1.74-5.1-2.03-7.8-.16-1.55-.25-3.1-.21-4.66.08-3.82.56-7.57,2.16-11.09,1.8-3.98,4.67-6.76,8.92-7.97,2.18-.62,4.41-.69,6.65-.5,2.01.17,3.94.66,5.71,1.68,2.53,1.45,4.13,3.69,5.17,6.38.24.62.42,1.27.64,1.9l.08.29c-2.08.49-4.7,1.16-6.77,1.68l-.11-.33c-.37-1.04-.88-1.98-1.56-2.85-2.56-3.27-8.43-3.68-11.12.77-1.07,1.77-1.61,3.7-1.92,5.73-.27,1.74-.37,3.48-.33,5.09h0Z"/>
          <path d="M61.2,57.6c.2-.71.38-1.38.58-2.04.26-.91.55-1.82.79-2.74.07-.27.19-.35.45-.37,1.81-.12,3.63-.28,5.44-.38,3.28-.18,6.57-.31,9.86-.38,4.02-.09,8.03-.06,12.05-.02,2,.02,4,.09,6,.16,3.19.12,6.38.25,9.56.45,2.41.16,4.82.28,7.23.45,2.71.19,5.42.42,8.14.64,1.08.09,2.16.17,3.27.26-2.08,1.64-3.5,3.87-5.37,5.68-.68.66-1.35,1.33-2.02,2.01-.75.77-1.57.9-2.61.74-2.94-.45-5.88-.8-8.83-1.17-2.48-.31-4.96-.61-7.44-.9-2-.23-4-.42-6-.62-2.29-.22-4.59-.44-6.88-.64-1.92-.16-3.85-.32-5.77-.44-3.1-.19-6.21-.36-9.31-.5-2.87-.13-5.74-.19-8.62-.21h-.51Z"/>
          <path d="M1.99,59.93c1.89-.29,3.85-.58,5.81-.88,2.6-.41,5.2-.81,7.8-1.24,2.5-.42,5.01-.79,7.53-1.14,2.09-.29,4.19-.51,6.28-.79,1.57-.21,3.13-.48,4.69-.7,2.16-.31,4.32-.59,6.48-.82,1.71-.18,3.42-.39,5.13-.56,2.06-.2,4.12-.37,6.18-.53,2.13-.17,4.26-.33,6.4-.48.98-.07,1.97-.13,3.01-.19-.19.65-.37,1.27-.55,1.89-.27.94-.55,1.88-.8,2.82-.06.21-.14.3-.37.29-.83-.01-1.66-.01-2.5-.02-2.88,0-5.76-.03-8.63-.03-3.8,0-7.59.08-11.38.21-3.15.11-6.29.32-9.44.47-1.51.07-3.03.11-4.54.19-1.65.09-3.3.2-4.95.3-2.38.15-4.77.28-7.15.46-2.66.2-5.31.43-7.97.65-.37.03-.75.06-1.03.08h0Z"/>
        </g>
      </g>
      <g id="Layer_1-4" data-name="Layer 1">
        <g>
          <path class="cls-3" d="M291.5,14.13c5.99,1.27,10.21,6.24,9.77,11.83-.37,4.71-4.09,8.8-9.21,10.02-1.32.31-2.71.49-4.07.49-3.44,0-6.93.18-10.32-.28-4.77-.64-8.47-3.15-10.03-7.91-2.05-6.23,1.71-12.19,8.55-13.84.8-.19,1.61-.39,2.43-.42,1.88-.06,10.84-.3,12.88.11ZM289.55,30.35c3.14-.49,4.98-2.86,4.67-5.73-.23-2.2-2.15-4.32-4.75-4.51-3.5-.26-7.04-.18-10.56,0-1.68.08-3.08,1.12-4,2.61-1.92,3.12,0,6.93,3.96,7.63,1.72.31,8.9.28,10.67,0Z"/>
          <path class="cls-3" d="M332.66,13.91v1.3c0,5.91,0,11.82,0,17.73,0,.54-.05,1.1-.17,1.63-.28,1.25-1.04,1.84-2.31,1.93-1.71.12-3.12-.54-4.41-1.61-4.21-3.51-8.4-7.19-12.84-10.87v12.53h-7.27c0-2.02.11-13.12.03-18.99-.02-1.21.3-2.3.89-2.88.74-.73,1.92-.94,3.44-.59.98.23,1.94.86,2.74,1.51,3.95,3.21,7.85,6.49,11.77,9.75.27.22.55.42,1.01.77v-12.19h7.14Z"/>
          <path class="cls-3" d="M212.15,28.03c0,.99-.01,1.61-.01,2.54h17.7c-1.01,1.33-4.61,6.06-4.61,5.98-6.14,0-14.56-.06-20.34-.06V14.02h24.84c-1.48,1.93-4.5,5.74-4.5,5.79s-12.6.01-13.09.01v2.08h16.36c-.52.69-4.5,6.14-4.5,6.14,0,0-9.7-.01-11.85-.01Z"/>
          <path class="cls-3" d="M338.23,19.82c2.98-3.49,5-5.91,5-5.91,4.55.05,9.03-.14,13.53.35,4.61.5,8.33,2.86,9.84,7.57,1.83,5.69-1.27,11.55-7.23,13.65-1.71.6-3.58.93-5.39.97-5.02.13-15.37.11-15.6.09v-14.1h6.99v7.95c3.42,0,6.71.19,9.97-.06,2.5-.19,4.33-2.12,4.65-4.18.35-2.29-.64-4.34-2.86-5.39-1.03-.49-2.23-.83-3.37-.86-4.67-.11-9.33-.07-14-.08-.42,0-.84,0-1.53,0Z"/>
          <path class="cls-3" d="M266.58,13.94c-2.91,3.24-5.62,6.26-8.33,9.28-1.52,1.69-3.32,3.92-4.79,5.64v7.77h-6.96v-7.77c-4.05-4.3-9.32-9.56-13.33-13.89-.25-.27-.49-.57-.88-1.03,2.67-.03,6.88.03,9.04.03.22,0,5.69,6.15,8.36,9.04,1.62-1.87,8.03-9.04,8.35-9.04,2.74-.04,5.48-.02,8.53-.02Z"/>
          <path class="cls-4" d="M192.51,24.01c1.21-2.42,2.02-4.62,2.42-6.06.98-4.6-2.58-7.12-7.27-7.68-4.68-.56-12.53,3.23-14.55,4.44,4.44-7.68,8.08-14.55,8.08-14.55,3.64-.4,9.81-.23,13.74,2.02,2.68,1.53,5.66,4.51,6.06,7.68,1.1,8.6-8.33,14.09-8.49,14.14Z"/>
          <path class="cls-3" d="M176.17,30.5c3.41-.02,5.84.96,6.19,3.58.26,1.94-.32,3.71-1.38,5.33-1.21,1.84-2.85,3.2-4.81,4.2-8.71,4.66-20.54,6.31-20.83,6.27,1.3-1.39,2.73-2.74,3.95-4.04,2.69-2.84,6.23-6.51,8.98-9.3,0,0,4.85-.81,7.27-2.02,2.21-1.1,2.51-2.22.63-4.02Z"/>
          <path class="cls-3" d="M169.65,12.85c.62.78.72,1.85.39,2.79-.1.27-.2.53-.33.77-3.54,6.43-7.09,12.86-10.71,19.25-.41.72-1.17,1.47-1.93,1.71-1.71.55-3.24-.88-3.01-2.67.08-.6.32-1.21.61-1.75,3.53-6.4,7.07-12.78,10.63-19.16,1.1-1.97,2.86-2.44,4.19-1.11.05.05.11.11.15.17Z"/>
          <g>
            <path class="cls-3" d="M184.51,17.01c-1.54.62-3.2.95-4.81,1.4.62.17,2.48.55,3.11.76,3.4,1.12,4.8,2.42,6.61,4.21,1.53-1.59,2.6-3.41,2.78-5.67.13-1.61-.23-3.06-1.67-4.01-1.46-.97-3.09-1.16-4.86-.98,2.4,2.01,1.61,3.19-1.16,4.31Z"/>
            <path class="cls-4" d="M171.09,18.76c-1.62,3.23-4.1,7.96-5.84,11.24-.47.88-1.25,2.19-1.84,3.3.67-.39,1.98-.97,2.42-1.21,4.29-2.33,8.37-3.28,13.33-2.42,3.37.58,6.47,2.02,5.66,7.27-.23,1.52-.81,3.23-2.02,5.25.59-.42,2.34-1.6,2.83-2.02,2.83-2.42,4.3-4.36,4.85-7.68.4-2.42.4-4.85-.81-6.87-4.04-7.27-18.41-7.23-18.59-6.87Z"/>
          </g>
          <g>
            <path class="cls-3" d="M212.81,45.99h-4.99v2.69h4.6c.34,0,.59.08.76.23.17.15.25.35.25.6s-.08.45-.25.61c-.16.16-.42.24-.76.24h-4.6v3.11h5.16c.35,0,.61.08.79.24.18.16.26.38.26.65s-.09.47-.26.63c-.18.16-.44.24-.79.24h-6.02c-.48,0-.83-.11-1.04-.32-.21-.21-.32-.56-.32-1.04v-8.22c0-.32.05-.58.14-.78.09-.2.24-.35.44-.44.2-.09.46-.14.77-.14h5.85c.35,0,.62.08.79.24s.26.36.26.62-.09.47-.26.62-.43.24-.79.24Z"/>
            <path class="cls-3" d="M217.5,48.25v.25c.36-.47.75-.82,1.18-1.04.43-.22.91-.33,1.47-.33s1.02.12,1.44.35c.42.23.74.56.95.99.13.25.22.52.26.81.04.29.06.66.06,1.1v3.79c0,.41-.09.72-.28.93-.19.21-.43.31-.73.31s-.55-.11-.74-.32-.28-.52-.28-.92v-3.4c0-.67-.09-1.19-.28-1.54-.19-.36-.56-.53-1.12-.53-.36,0-.69.11-.99.32-.3.22-.52.51-.66.89-.1.3-.15.87-.15,1.7v2.55c0,.41-.1.72-.29.93-.19.21-.44.31-.74.31s-.53-.11-.72-.32-.28-.52-.28-.92v-5.89c0-.39.08-.68.25-.87.17-.19.4-.29.69-.29.18,0,.34.04.49.13.14.08.26.21.35.38.09.17.13.38.13.62Z"/>
            <path class="cls-3" d="M232.37,48.62v5.92c0,.68-.07,1.26-.22,1.75-.14.49-.38.89-.69,1.21-.32.32-.74.55-1.25.71-.51.15-1.16.23-1.92.23-.7,0-1.33-.1-1.88-.29-.55-.2-.98-.45-1.28-.76-.3-.31-.45-.63-.45-.96,0-.25.08-.45.25-.61s.37-.24.61-.24c.3,0,.56.13.78.4.11.13.22.27.34.41.12.14.25.25.39.35.14.1.31.17.51.22.2.05.43.07.69.07.53,0,.94-.07,1.23-.22.29-.15.49-.35.61-.62.12-.26.19-.55.21-.85s.03-.78.04-1.45c-.31.44-.68.77-1.09,1-.41.23-.9.34-1.47.34-.68,0-1.28-.17-1.79-.52-.51-.35-.9-.84-1.18-1.46-.27-.63-.41-1.35-.41-2.17,0-.61.08-1.16.25-1.66.17-.49.4-.91.71-1.25.31-.34.66-.59,1.07-.76.4-.17.85-.26,1.33-.26.58,0,1.08.11,1.5.33.42.22.82.57,1.18,1.04v-.28c0-.35.09-.63.26-.82.17-.19.4-.29.67-.29.39,0,.65.13.78.38.13.26.19.63.19,1.11ZM226.47,51.2c0,.83.18,1.45.54,1.87.36.42.83.63,1.4.63.34,0,.66-.09.96-.27.3-.18.55-.46.74-.82.19-.37.28-.81.28-1.33,0-.83-.18-1.48-.55-1.94-.37-.46-.85-.69-1.44-.69s-1.05.22-1.4.66c-.35.44-.53,1.07-.53,1.89Z"/>
            <path class="cls-3" d="M235.46,46.18c-.28,0-.53-.09-.73-.26-.2-.17-.3-.42-.3-.74,0-.29.1-.53.31-.71.21-.19.45-.28.72-.28s.5.08.7.25c.2.17.31.42.31.74s-.1.56-.3.74c-.2.18-.44.26-.71.26ZM236.47,48.28v5.89c0,.41-.1.72-.29.93-.19.21-.44.31-.74.31s-.54-.11-.73-.32c-.19-.21-.28-.52-.28-.92v-5.83c0-.4.09-.71.28-.91.19-.2.43-.31.73-.31s.54.1.74.31c.19.2.29.49.29.85Z"/>
            <path class="cls-3" d="M240.43,48.25v.25c.36-.47.75-.82,1.18-1.04.43-.22.91-.33,1.47-.33s1.02.12,1.44.35c.42.23.74.56.95.99.13.25.22.52.26.81.04.29.06.66.06,1.1v3.79c0,.41-.09.72-.28.93-.19.21-.43.31-.73.31s-.55-.11-.74-.32-.28-.52-.28-.92v-3.4c0-.67-.09-1.19-.28-1.54-.19-.36-.56-.53-1.12-.53-.36,0-.69.11-.99.32-.3.22-.52.51-.66.89-.1.3-.15.87-.15,1.7v2.55c0,.41-.1.72-.29.93-.19.21-.44.31-.74.31s-.53-.11-.72-.32-.28-.52-.28-.92v-5.89c0-.39.08-.68.25-.87.17-.19.4-.29.69-.29.18,0,.34.04.49.13.14.08.26.21.35.38.09.17.13.38.13.62Z"/>
            <path class="cls-3" d="M253.49,51.77h-3.98c0,.46.1.87.28,1.22.18.35.42.62.72.8.3.18.63.27,1,.27.24,0,.47-.03.67-.09.2-.06.4-.15.59-.27.19-.12.36-.25.52-.39.16-.14.37-.33.62-.57.1-.09.25-.13.45-.13.21,0,.38.06.51.17.13.11.19.28.19.49,0,.18-.07.4-.22.65-.14.25-.36.48-.65.71-.29.23-.66.41-1.1.56s-.95.22-1.52.22c-1.31,0-2.33-.37-3.05-1.12-.73-.75-1.09-1.76-1.09-3.04,0-.6.09-1.16.27-1.68.18-.51.44-.96.78-1.32.34-.37.77-.65,1.27-.85.5-.2,1.06-.29,1.67-.29.8,0,1.48.17,2.05.5.57.34,1,.77,1.28,1.3.28.53.43,1.07.43,1.63,0,.51-.15.84-.44,1-.29.15-.71.23-1.24.23ZM249.51,50.61h3.69c-.05-.7-.24-1.22-.56-1.56-.33-.35-.75-.52-1.29-.52s-.92.18-1.25.53c-.33.35-.52.87-.59,1.56Z"/>
            <path class="cls-3" d="M262.57,51.77h-3.98c0,.46.1.87.28,1.22.18.35.42.62.72.8.3.18.63.27,1,.27.24,0,.47-.03.67-.09.2-.06.4-.15.59-.27.19-.12.36-.25.52-.39.16-.14.37-.33.62-.57.1-.09.25-.13.45-.13.21,0,.38.06.51.17.13.11.19.28.19.49,0,.18-.07.4-.22.65-.14.25-.36.48-.65.71-.29.23-.66.41-1.1.56s-.95.22-1.52.22c-1.31,0-2.33-.37-3.05-1.12-.73-.75-1.09-1.76-1.09-3.04,0-.6.09-1.16.27-1.68.18-.51.44-.96.78-1.32.34-.37.77-.65,1.27-.85.5-.2,1.06-.29,1.67-.29.8,0,1.48.17,2.05.5.57.34,1,.77,1.28,1.3.28.53.43,1.07.43,1.63,0,.51-.15.84-.44,1-.29.15-.71.23-1.24.23ZM258.59,50.61h3.69c-.05-.7-.24-1.22-.56-1.56-.33-.35-.75-.52-1.29-.52s-.92.18-1.25.53c-.33.35-.52.87-.59,1.56Z"/>
            <path class="cls-3" d="M267.99,52.47v1.7c0,.41-.1.72-.29.93s-.44.31-.74.31-.53-.1-.72-.31c-.19-.21-.28-.52-.28-.93v-5.67c0-.92.33-1.37.99-1.37.34,0,.58.11.73.32.15.21.23.53.25.95.24-.42.49-.73.75-.95.26-.21.6-.32,1.03-.32s.84.11,1.25.32c.4.21.6.5.6.85,0,.25-.09.45-.26.62-.17.16-.36.24-.56.24-.07,0-.25-.05-.54-.14-.29-.09-.54-.14-.76-.14-.3,0-.54.08-.73.24-.19.16-.34.39-.44.7-.1.31-.18.68-.22,1.1s-.06.94-.06,1.56Z"/>
            <path class="cls-3" d="M273.69,46.18c-.28,0-.53-.09-.73-.26-.2-.17-.3-.42-.3-.74,0-.29.1-.53.31-.71.21-.19.45-.28.72-.28s.5.08.7.25c.2.17.31.42.31.74s-.1.56-.3.74c-.2.18-.44.26-.71.26ZM274.7,48.28v5.89c0,.41-.1.72-.29.93-.19.21-.44.31-.74.31s-.54-.11-.73-.32c-.19-.21-.28-.52-.28-.92v-5.83c0-.4.09-.71.28-.91.19-.2.43-.31.73-.31s.54.1.74.31c.19.2.29.49.29.85Z"/>
            <path class="cls-3" d="M278.66,48.25v.25c.36-.47.75-.82,1.18-1.04.43-.22.91-.33,1.47-.33s1.02.12,1.44.35c.42.23.74.56.95.99.13.25.22.52.26.81.04.29.06.66.06,1.1v3.79c0,.41-.09.72-.28.93-.19.21-.43.31-.73.31s-.55-.11-.74-.32-.28-.52-.28-.92v-3.4c0-.67-.09-1.19-.28-1.54-.19-.36-.56-.53-1.12-.53-.36,0-.69.11-.99.32-.3.22-.52.51-.66.89-.1.3-.15.87-.15,1.7v2.55c0,.41-.1.72-.29.93-.19.21-.44.31-.74.31s-.53-.11-.72-.32-.28-.52-.28-.92v-5.89c0-.39.08-.68.25-.87.17-.19.4-.29.69-.29.18,0,.34.04.49.13.14.08.26.21.35.38.09.17.13.38.13.62Z"/>
            <path class="cls-3" d="M293.53,48.62v5.92c0,.68-.07,1.26-.22,1.75-.14.49-.38.89-.69,1.21-.32.32-.74.55-1.25.71-.51.15-1.16.23-1.92.23-.7,0-1.33-.1-1.88-.29-.55-.2-.98-.45-1.28-.76-.3-.31-.45-.63-.45-.96,0-.25.08-.45.25-.61s.37-.24.61-.24c.3,0,.56.13.78.4.11.13.22.27.34.41.12.14.25.25.39.35.14.1.31.17.51.22.2.05.43.07.69.07.53,0,.94-.07,1.23-.22.29-.15.49-.35.61-.62.12-.26.19-.55.21-.85s.03-.78.04-1.45c-.31.44-.68.77-1.09,1-.41.23-.9.34-1.47.34-.68,0-1.28-.17-1.79-.52-.51-.35-.9-.84-1.18-1.46-.27-.63-.41-1.35-.41-2.17,0-.61.08-1.16.25-1.66.17-.49.4-.91.71-1.25.31-.34.66-.59,1.07-.76.4-.17.85-.26,1.33-.26.58,0,1.08.11,1.5.33.42.22.82.57,1.18,1.04v-.28c0-.35.09-.63.26-.82.17-.19.4-.29.67-.29.39,0,.65.13.78.38.13.26.19.63.19,1.11ZM287.63,51.2c0,.83.18,1.45.54,1.87.36.42.83.63,1.4.63.34,0,.66-.09.96-.27.3-.18.55-.46.74-.82.19-.37.28-.81.28-1.33,0-.83-.18-1.48-.55-1.94-.37-.46-.85-.69-1.44-.69s-1.05.22-1.4.66c-.35.44-.53,1.07-.53,1.89Z"/>
            <path class="cls-3" d="M300.72,46.6c0-.46.12-.88.36-1.26.24-.38.6-.68,1.06-.91.47-.22,1.02-.34,1.65-.34s1.17.12,1.63.35c.46.23.8.54,1.03.92.23.38.34.77.34,1.18,0,.56-.18,1.04-.55,1.46-.37.41-.91.83-1.63,1.26.25.29.48.57.69.83.21.26.42.5.62.72.2.22.38.42.54.57.07-.14.19-.4.35-.78.16-.38.3-.66.44-.83.14-.17.33-.25.58-.25.23,0,.44.08.62.25.18.17.27.37.27.61,0,.22-.08.53-.23.93-.15.4-.38.84-.67,1.33.18.16.48.4.88.72.4.32.65.54.74.66.09.12.14.27.14.47,0,.26-.09.48-.28.65-.19.18-.39.26-.62.26s-.46-.07-.68-.22c-.22-.15-.68-.51-1.4-1.1-.32.3-.66.55-1,.75-.35.19-.72.34-1.11.43-.4.09-.84.14-1.32.14-.62,0-1.18-.09-1.68-.27-.5-.18-.91-.43-1.24-.74-.33-.31-.57-.65-.73-1.03-.16-.38-.24-.76-.24-1.15s.06-.72.18-1.03c.12-.31.29-.59.5-.84.22-.25.48-.49.8-.72.32-.23.68-.45,1.1-.66-.37-.47-.66-.88-.85-1.25-.19-.37-.29-.74-.29-1.13ZM302.83,50.18c-.51.29-.89.59-1.14.88-.25.29-.38.64-.38,1.04,0,.23.05.45.14.66.09.21.23.4.4.58.18.18.38.32.62.41.23.09.48.14.74.14s.5-.04.74-.12c.24-.08.47-.19.68-.34.21-.15.44-.33.66-.55-.44-.41-.84-.81-1.19-1.21-.35-.4-.78-.9-1.27-1.5ZM303.59,48.13c.51-.32.87-.6,1.1-.82.23-.22.34-.49.34-.8s-.11-.57-.34-.78c-.23-.21-.51-.31-.85-.31s-.63.11-.86.32c-.23.21-.35.47-.35.75,0,.15.04.31.13.48.09.17.2.34.32.51.13.17.3.38.51.64Z"/>
            <path class="cls-3" d="M322.09,46.11h-2.42v7.95c0,.46-.1.8-.31,1.02s-.47.33-.79.33-.6-.11-.8-.34c-.21-.22-.31-.56-.31-1.01v-7.95h-2.42c-.38,0-.66-.08-.84-.25-.18-.17-.28-.39-.28-.66s.1-.51.29-.67.47-.25.83-.25h7.04c.38,0,.67.08.85.25.19.17.28.39.28.66s-.09.49-.28.66c-.19.17-.47.25-.85.25Z"/>
            <path class="cls-3" d="M329.12,51.77h-3.98c0,.46.1.87.28,1.22.18.35.42.62.72.8.3.18.63.27,1,.27.24,0,.47-.03.67-.09.2-.06.4-.15.59-.27.19-.12.36-.25.52-.39.16-.14.37-.33.62-.57.1-.09.25-.13.45-.13.21,0,.38.06.51.17.13.11.19.28.19.49,0,.18-.07.4-.22.65-.14.25-.36.48-.65.71-.29.23-.66.41-1.1.56s-.95.22-1.52.22c-1.31,0-2.33-.37-3.05-1.12-.73-.75-1.09-1.76-1.09-3.04,0-.6.09-1.16.27-1.68.18-.51.44-.96.78-1.32.34-.37.77-.65,1.27-.85.5-.2,1.06-.29,1.67-.29.8,0,1.48.17,2.05.5.57.34,1,.77,1.28,1.3.28.53.43,1.07.43,1.63,0,.51-.15.84-.44,1-.29.15-.71.23-1.24.23ZM325.13,50.61h3.69c-.05-.7-.24-1.22-.56-1.56-.33-.35-.75-.52-1.29-.52s-.92.18-1.25.53c-.33.35-.52.87-.59,1.56Z"/>
            <path class="cls-3" d="M339.07,52.74c0,.56-.14,1.04-.41,1.44-.27.4-.68.7-1.21.91s-1.19.31-1.95.31-1.36-.11-1.88-.34c-.52-.22-.91-.5-1.16-.84-.25-.34-.37-.67-.37-1.01,0-.22.08-.42.24-.57.16-.16.36-.24.6-.24.21,0,.38.05.49.16.11.1.22.25.33.44.21.36.46.63.75.81.29.18.69.27,1.19.27.41,0,.74-.09,1-.27.26-.18.39-.39.39-.62,0-.36-.14-.62-.41-.78-.27-.16-.72-.32-1.34-.47-.7-.17-1.27-.36-1.71-.55-.44-.19-.79-.44-1.06-.76s-.4-.7-.4-1.16c0-.41.12-.79.37-1.16.24-.36.6-.65,1.08-.87s1.05-.32,1.72-.32c.53,0,1,.05,1.42.16.42.11.77.26,1.05.44.28.18.49.39.64.61.15.22.22.44.22.66,0,.23-.08.43-.24.57s-.38.22-.67.22c-.21,0-.39-.06-.53-.18-.15-.12-.31-.3-.5-.54-.15-.2-.34-.36-.54-.48s-.49-.18-.85-.18-.67.08-.92.24c-.24.16-.37.35-.37.59,0,.21.09.39.27.53.18.14.42.25.72.34s.72.2,1.25.33c.63.15,1.15.34,1.55.55.4.21.7.47.91.76s.31.62.31,1Z"/>
            <path class="cls-3" d="M340.91,47.3h.22v-1.22c0-.33,0-.59.03-.77.02-.19.07-.35.15-.48.08-.14.19-.25.34-.34.15-.09.32-.13.5-.13.26,0,.49.1.7.29.14.13.23.29.26.47.04.19.06.45.06.79v1.39h.75c.29,0,.51.07.66.21.15.14.23.31.23.53,0,.27-.11.47-.32.57-.22.11-.53.16-.93.16h-.38v3.75c0,.32.01.56.03.74.02.17.08.31.18.42.1.11.25.16.47.16.12,0,.28-.02.49-.06.2-.04.36-.06.48-.06.16,0,.31.07.44.2.13.13.2.29.2.49,0,.33-.18.58-.54.75-.36.17-.87.26-1.54.26-.64,0-1.12-.11-1.45-.32-.33-.21-.54-.51-.65-.89-.1-.38-.15-.88-.15-1.51v-3.91h-.27c-.29,0-.52-.07-.67-.21-.15-.14-.23-.32-.23-.53s.08-.39.24-.53c.16-.14.4-.21.71-.21Z"/>
            <path class="cls-3" d="M347.24,46.18c-.28,0-.53-.09-.73-.26-.2-.17-.3-.42-.3-.74,0-.29.1-.53.31-.71.21-.19.45-.28.72-.28s.5.08.7.25c.2.17.31.42.31.74s-.1.56-.3.74c-.2.18-.44.26-.71.26ZM348.24,48.28v5.89c0,.41-.1.72-.29.93-.19.21-.44.31-.74.31s-.54-.11-.73-.32c-.19-.21-.28-.52-.28-.92v-5.83c0-.4.09-.71.28-.91.19-.2.43-.31.73-.31s.54.1.74.31c.19.2.29.49.29.85Z"/>
            <path class="cls-3" d="M352.2,48.25v.25c.36-.47.75-.82,1.18-1.04.43-.22.91-.33,1.47-.33s1.02.12,1.44.35c.42.23.74.56.95.99.13.25.22.52.26.81.04.29.06.66.06,1.1v3.79c0,.41-.09.72-.28.93-.19.21-.43.31-.73.31s-.55-.11-.74-.32-.28-.52-.28-.92v-3.4c0-.67-.09-1.19-.28-1.54-.19-.36-.56-.53-1.12-.53-.36,0-.69.11-.99.32-.3.22-.52.51-.66.89-.1.3-.15.87-.15,1.7v2.55c0,.41-.1.72-.29.93-.19.21-.44.31-.74.31s-.53-.11-.72-.32-.28-.52-.28-.92v-5.89c0-.39.08-.68.25-.87.17-.19.4-.29.69-.29.18,0,.34.04.49.13.14.08.26.21.35.38.09.17.13.38.13.62Z"/>
            <path class="cls-3" d="M367.07,48.62v5.92c0,.68-.07,1.26-.22,1.75-.14.49-.38.89-.69,1.21-.32.32-.74.55-1.25.71-.51.15-1.16.23-1.92.23-.7,0-1.33-.1-1.88-.29-.55-.2-.98-.45-1.28-.76-.3-.31-.45-.63-.45-.96,0-.25.08-.45.25-.61s.37-.24.61-.24c.3,0,.56.13.78.4.11.13.22.27.34.41.12.14.25.25.39.35.14.1.31.17.51.22.2.05.43.07.69.07.53,0,.94-.07,1.23-.22.29-.15.49-.35.61-.62.12-.26.19-.55.21-.85s.03-.78.04-1.45c-.31.44-.68.77-1.09,1-.41.23-.9.34-1.47.34-.68,0-1.28-.17-1.79-.52-.51-.35-.9-.84-1.18-1.46-.27-.63-.41-1.35-.41-2.17,0-.61.08-1.16.25-1.66.17-.49.4-.91.71-1.25.31-.34.66-.59,1.07-.76.4-.17.85-.26,1.33-.26.58,0,1.08.11,1.5.33.42.22.82.57,1.18,1.04v-.28c0-.35.09-.63.26-.82.17-.19.4-.29.67-.29.39,0,.65.13.78.38.13.26.19.63.19,1.11ZM361.17,51.2c0,.83.18,1.45.54,1.87.36.42.83.63,1.4.63.34,0,.66-.09.96-.27.3-.18.55-.46.74-.82.19-.37.28-.81.28-1.33,0-.83-.18-1.48-.55-1.94-.37-.46-.85-.69-1.44-.69s-1.05.22-1.4.66c-.35.44-.53,1.07-.53,1.89Z"/>
          </g>
        </g>
      </g>
      <g>
        <path class="cls-3" d="M35.84,29.71c2.87,5.86,5.72,11.68,8.59,17.55-.19,0-5.83,0-8.3,0l-7.35-16.07c-1.88.01-4.56.02-6.44,0l.03,16.07c-2.18-.02-5.3-.02-7.48,0,0,0,0-26.54,0-39.42,0,0,10.98-.03,16.28.03,2.65.03,5.19.59,7.41,2.14,2.44,1.71,3.71,4.14,4.17,7.04.34,2.14.33,4.28-.34,6.36-.99,3.05-3.03,5.06-6.03,6.09-.17.06-.34.12-.54.19h0ZM22.34,19.57c0,1.71,0,3.85,0,5.56h.41c1.82-.02,3.64,0,5.46-.01,1.19-.01,2.38-.11,3.55-.41,1.94-.5,3.27-1.61,3.62-3.69.15-.89.17-1.79.02-2.68-.26-1.66-1.08-2.92-2.61-3.65-.88-.42-1.81-.65-2.77-.66-2.44-.03-7.68-.04-7.68-.04,0,1.74,0,3.84,0,5.58h0Z"/>
        <path class="cls-3" d="M67.03,29.71c2.87,5.86,5.72,11.68,8.59,17.55-.19,0-5.83,0-8.3,0l-7.35-16.07c-1.88.01-4.56.02-6.44,0l.03,16.07c-2.18-.02-5.3-.02-7.48,0,0,0,0-26.54,0-39.42,0,0,10.98-.03,16.28.03,2.65.03,5.19.59,7.41,2.14,2.44,1.71,3.71,4.14,4.18,7.04.34,2.14.33,4.28-.34,6.36-.99,3.05-3.03,5.06-6.03,6.09-.17.06-.34.12-.54.19h0ZM53.53,19.57c0,1.71,0,3.85,0,5.56h.41c1.82-.02,3.64,0,5.46-.01,1.19-.01,2.38-.11,3.55-.41,1.94-.5,3.27-1.61,3.62-3.69.15-.89.16-1.79.02-2.68-.26-1.66-1.08-2.92-2.61-3.65-.88-.42-1.81-.65-2.77-.66-2.44-.03-7.68-.04-7.68-.04,0,1.74,0,3.84,0,5.58h0Z"/>
        <path class="cls-3" d="M83.31,27.74c-.03,2.76.15,5.36.93,7.87.52,1.67,1.29,3.19,2.66,4.33,1.4,1.16,3.04,1.55,4.82,1.53,1.66-.02,3.19-.4,4.47-1.53,1.06-.94,1.8-2.12,2.47-3.36.17-.31.52-.94.52-.94,0,0,.65.18.98.27,1.85.5,4.05,1.08,5.9,1.58l-.08.27c-1.27,3.49-3.28,6.38-6.58,8.21-2.13,1.18-4.44,1.71-6.86,1.82-2.58.13-5.1-.18-7.49-1.23-3.26-1.44-5.5-3.92-6.99-7.12-1.15-2.47-1.74-5.1-2.03-7.8-.16-1.55-.25-3.1-.21-4.66.08-3.82.56-7.57,2.16-11.09,1.8-3.98,4.67-6.76,8.92-7.97,2.18-.62,4.41-.69,6.65-.5,2.01.17,3.94.66,5.71,1.68,2.53,1.45,4.13,3.69,5.17,6.38.24.62.42,1.27.64,1.9l.08.29c-2.08.49-4.7,1.16-6.77,1.68l-.11-.33c-.37-1.04-.88-1.98-1.56-2.85-2.56-3.27-8.43-3.68-11.12.77-1.07,1.77-1.61,3.7-1.92,5.73-.27,1.74-.37,3.48-.33,5.09h0Z"/>
        <path class="cls-2" d="M59.21,57.6c.2-.71.38-1.38.58-2.04.26-.91.55-1.82.79-2.74.07-.27.19-.35.45-.37,1.81-.12,3.63-.28,5.44-.38,3.28-.18,6.57-.31,9.86-.38,4.02-.09,8.03-.06,12.05-.02,2,.02,4,.09,6,.16,3.19.12,6.38.25,9.56.45,2.41.16,4.82.28,7.23.45,2.71.19,5.42.42,8.14.64,1.08.09,2.16.17,3.27.26-2.08,1.64-3.5,3.87-5.37,5.68-.68.66-1.35,1.33-2.02,2.01-.75.77-1.57.9-2.61.74-2.94-.45-5.88-.8-8.83-1.17-2.48-.31-4.96-.61-7.44-.9-2-.23-4-.42-6-.62-2.29-.22-4.59-.44-6.88-.64-1.92-.16-3.85-.32-5.77-.44-3.1-.19-6.21-.36-9.31-.5-2.87-.13-5.74-.19-8.62-.21h-.51Z"/>
        <path class="cls-1" d="M0,59.93c1.89-.29,3.85-.58,5.81-.88,2.6-.41,5.2-.81,7.8-1.24,2.5-.42,5.01-.79,7.53-1.14,2.09-.29,4.19-.51,6.28-.79,1.57-.21,3.13-.48,4.69-.7,2.16-.31,4.32-.59,6.48-.82,1.71-.18,3.42-.39,5.13-.56,2.06-.2,4.12-.37,6.18-.53,2.13-.17,4.26-.33,6.4-.48.98-.07,1.97-.13,3.01-.19-.19.65-.37,1.27-.55,1.89-.27.94-.55,1.88-.8,2.82-.06.21-.14.3-.37.29-.83-.01-1.66-.01-2.5-.02-2.88,0-5.76-.03-8.63-.03-3.8,0-7.59.08-11.38.21-3.15.11-6.29.32-9.44.47-1.51.07-3.03.11-4.54.19-1.65.09-3.3.2-4.95.3-2.38.15-4.77.28-7.15.46-2.66.2-5.31.43-7.97.65-.37.03-.75.06-1.03.08h0Z"/>
      </g>
    </g>
  </g>
</svg>